<?xml version="1.0" encoding="utf-8"?>
<!-- Generator: Adobe Illustrator 24.0.0, SVG Export Plug-In . SVG Version: 6.00 Build 0)  -->
<svg version="1.1" id="Layer_1" xmlns="http://www.w3.org/2000/svg" xmlns:xlink="http://www.w3.org/1999/xlink" x="0px" y="0px"
	 viewBox="0 0 235 93" style="enable-background:new 0 0 235 93;" xml:space="preserve">
<style type="text/css">
	.st0{fill:#27A19C;}
	.st1{fill:#22183D;}
	.st2{fill:none;stroke:#F5841F;stroke-width:1.4388;stroke-miterlimit:10;}
	.st3{fill:#0D918C;}
</style>
<g>
	<path class="st0" d="M10.33,73.35c-0.34,0-0.61-0.09-0.79-0.28c-0.18-0.19-0.27-0.46-0.27-0.8V65.4h-2.4
		c-0.59,0-0.88-0.29-0.88-0.87c0-0.58,0.29-0.87,0.88-0.87h6.91c0.59,0,0.88,0.29,0.88,0.87c0,0.58-0.29,0.87-0.88,0.87h-2.4v6.86
		c0,0.34-0.09,0.61-0.26,0.8C10.93,73.25,10.67,73.35,10.33,73.35z"/>
	<path class="st0" d="M18.34,73.35c-0.34,0-0.61-0.09-0.79-0.28c-0.18-0.19-0.27-0.46-0.27-0.8v-7.64c0-0.72,0.35-1.09,1.06-1.09
		c0.7,0,1.04,0.36,1.04,1.09v2.88h4.45v-2.88c0-0.72,0.35-1.09,1.04-1.09c0.71,0,1.06,0.36,1.06,1.09v7.64
		c0,0.34-0.09,0.61-0.27,0.8c-0.18,0.19-0.44,0.28-0.79,0.28c-0.33,0-0.59-0.09-0.77-0.28c-0.18-0.19-0.27-0.46-0.27-0.8v-3.01
		h-4.45v3.01C19.39,72.99,19.04,73.35,18.34,73.35z"/>
	<path class="st0" d="M30.69,73.23c-0.73,0-1.1-0.37-1.1-1.1v-7.37c0-0.73,0.37-1.1,1.1-1.1h4.73c0.55,0,0.83,0.27,0.83,0.81
		c0,0.55-0.28,0.83-0.83,0.83H31.6v2.24h3.51c0.56,0,0.84,0.28,0.84,0.83c0,0.55-0.28,0.83-0.84,0.83H31.6v2.39h3.83
		c0.55,0,0.83,0.27,0.83,0.81c0,0.55-0.28,0.83-0.83,0.83H30.69z"/>
	<path class="st0" d="M46.1,73.35c-0.34,0-0.61-0.09-0.79-0.28c-0.19-0.19-0.28-0.47-0.28-0.83v-7.47c0-0.73,0.37-1.1,1.1-1.1h4.64
		c0.55,0,0.83,0.27,0.83,0.81c0,0.55-0.28,0.83-0.83,0.83h-3.64v2.33h3.34c0.56,0,0.84,0.27,0.84,0.81c0,0.55-0.28,0.83-0.84,0.83
		h-3.34v2.96C47.13,72.98,46.79,73.35,46.1,73.35z"/>
	<path class="st0" d="M58.58,73.38c-1.36,0-2.39-0.35-3.1-1.04c-0.71-0.7-1.06-1.73-1.06-3.11v-4.61c0-0.34,0.09-0.61,0.27-0.79
		c0.18-0.19,0.44-0.28,0.79-0.28c0.7,0,1.04,0.36,1.04,1.07v4.63c0,0.78,0.18,1.36,0.53,1.76c0.35,0.39,0.86,0.59,1.53,0.59
		c1.37,0,2.05-0.78,2.05-2.35v-4.63c0-0.71,0.35-1.07,1.04-1.07c0.33,0,0.59,0.09,0.77,0.28c0.18,0.19,0.26,0.45,0.26,0.79v4.61
		c0,1.37-0.35,2.41-1.04,3.11C60.96,73.03,59.94,73.38,58.58,73.38z"/>
	<path class="st0" d="M69.62,73.35c-0.34,0-0.61-0.09-0.79-0.28c-0.18-0.19-0.27-0.46-0.27-0.8V65.4h-2.4
		c-0.59,0-0.88-0.29-0.88-0.87c0-0.58,0.29-0.87,0.88-0.87h6.91c0.59,0,0.88,0.29,0.88,0.87c0,0.58-0.29,0.87-0.88,0.87h-2.4v6.86
		c0,0.34-0.09,0.61-0.26,0.8C70.23,73.25,69.97,73.35,69.62,73.35z"/>
	<path class="st0" d="M80.68,73.38c-1.36,0-2.39-0.35-3.1-1.04c-0.71-0.7-1.06-1.73-1.06-3.11v-4.61c0-0.34,0.09-0.61,0.27-0.79
		c0.18-0.19,0.44-0.28,0.79-0.28c0.7,0,1.04,0.36,1.04,1.07v4.63c0,0.78,0.18,1.36,0.53,1.76c0.35,0.39,0.86,0.59,1.53,0.59
		c1.37,0,2.05-0.78,2.05-2.35v-4.63c0-0.71,0.35-1.07,1.04-1.07c0.33,0,0.59,0.09,0.77,0.28c0.18,0.19,0.26,0.45,0.26,0.79v4.61
		c0,1.37-0.35,2.41-1.04,3.11C83.06,73.03,82.04,73.38,80.68,73.38z"/>
	<path class="st0" d="M89.44,73.35c-0.34,0-0.61-0.09-0.79-0.28c-0.18-0.19-0.27-0.46-0.27-0.8v-7.53c0-0.71,0.36-1.07,1.07-1.07
		h3.3c1.07,0,1.89,0.26,2.47,0.77c0.58,0.52,0.87,1.23,0.87,2.16c0,0.71-0.18,1.31-0.55,1.78c-0.37,0.47-0.89,0.8-1.57,0.97
		c0.48,0.14,0.87,0.49,1.18,1.04L96,71.95c0.19,0.34,0.23,0.66,0.11,0.96c-0.12,0.29-0.4,0.44-0.85,0.44c-0.3,0-0.54-0.06-0.73-0.19
		c-0.19-0.13-0.35-0.32-0.49-0.58l-1.3-2.4c-0.14-0.25-0.3-0.43-0.5-0.52c-0.2-0.09-0.43-0.14-0.71-0.14h-1.03v2.74
		c0,0.34-0.09,0.61-0.26,0.8C90.05,73.25,89.79,73.35,89.44,73.35z M90.49,68h1.89c1.13,0,1.7-0.45,1.7-1.36
		c0-0.9-0.57-1.34-1.7-1.34h-1.89V68z"/>
	<path class="st0" d="M100.65,73.23c-0.73,0-1.1-0.37-1.1-1.1v-7.37c0-0.73,0.37-1.1,1.1-1.1h4.73c0.55,0,0.83,0.27,0.83,0.81
		c0,0.55-0.28,0.83-0.83,0.83h-3.83v2.24h3.51c0.56,0,0.84,0.28,0.84,0.83c0,0.55-0.28,0.83-0.84,0.83h-3.51v2.39h3.83
		c0.55,0,0.83,0.27,0.83,0.81c0,0.55-0.28,0.83-0.83,0.83H100.65z"/>
	<path class="st0" d="M119.42,73.38c-0.94,0-1.77-0.21-2.48-0.62c-0.71-0.41-1.26-0.99-1.66-1.72c-0.39-0.74-0.59-1.6-0.59-2.6
		c0-0.99,0.2-1.86,0.59-2.6c0.39-0.74,0.94-1.31,1.65-1.72c0.71-0.41,1.53-0.61,2.48-0.61c0.95,0,1.78,0.2,2.49,0.61
		c0.71,0.41,1.26,0.98,1.66,1.72c0.39,0.74,0.59,1.6,0.59,2.58c0,1-0.2,1.86-0.59,2.6c-0.39,0.74-0.95,1.32-1.66,1.73
		C121.2,73.17,120.37,73.38,119.42,73.38z M119.42,71.58c0.8,0,1.42-0.28,1.87-0.83c0.45-0.56,0.67-1.33,0.67-2.31
		c0-0.99-0.22-1.77-0.66-2.31c-0.44-0.55-1.07-0.82-1.87-0.82c-0.79,0-1.4,0.27-1.85,0.82c-0.45,0.55-0.67,1.32-0.67,2.31
		c0,0.99,0.22,1.76,0.67,2.31C118.02,71.31,118.64,71.58,119.42,71.58z"/>
	<path class="st0" d="M128.58,73.35c-0.34,0-0.61-0.09-0.79-0.28c-0.19-0.19-0.28-0.47-0.28-0.83v-7.47c0-0.73,0.37-1.1,1.1-1.1
		h4.64c0.55,0,0.83,0.27,0.83,0.81c0,0.55-0.28,0.83-0.83,0.83h-3.64v2.33h3.34c0.56,0,0.84,0.27,0.84,0.81
		c0,0.55-0.28,0.83-0.84,0.83h-3.34v2.96C129.61,72.98,129.27,73.35,128.58,73.35z"/>
	<path class="st0" d="M143.54,73.35c-0.34,0-0.61-0.09-0.79-0.28c-0.19-0.19-0.28-0.47-0.28-0.83v-7.47c0-0.73,0.37-1.1,1.1-1.1
		h4.64c0.55,0,0.83,0.27,0.83,0.81c0,0.55-0.28,0.83-0.83,0.83h-3.64v2.33h3.34c0.56,0,0.84,0.27,0.84,0.81
		c0,0.55-0.28,0.83-0.84,0.83h-3.34v2.96C144.58,72.98,144.23,73.35,143.54,73.35z"/>
	<path class="st0" d="M156.23,73.38c-0.94,0-1.77-0.21-2.48-0.62c-0.71-0.41-1.26-0.99-1.66-1.72c-0.39-0.74-0.59-1.6-0.59-2.6
		c0-0.99,0.2-1.86,0.59-2.6c0.39-0.74,0.94-1.31,1.65-1.72c0.71-0.41,1.53-0.61,2.48-0.61c0.95,0,1.78,0.2,2.49,0.61
		c0.71,0.41,1.26,0.98,1.66,1.72c0.39,0.74,0.59,1.6,0.59,2.58c0,1-0.2,1.86-0.59,2.6c-0.39,0.74-0.95,1.32-1.66,1.73
		C158.01,73.17,157.18,73.38,156.23,73.38z M156.23,71.58c0.8,0,1.42-0.28,1.87-0.83c0.45-0.56,0.67-1.33,0.67-2.31
		c0-0.99-0.22-1.77-0.66-2.31c-0.44-0.55-1.07-0.82-1.87-0.82c-0.79,0-1.4,0.27-1.85,0.82c-0.45,0.55-0.67,1.32-0.67,2.31
		c0,0.99,0.22,1.76,0.67,2.31C154.82,71.31,155.44,71.58,156.23,71.58z"/>
	<path class="st0" d="M167.73,73.38c-0.58,0-1.16-0.06-1.74-0.19c-0.58-0.13-1.08-0.31-1.51-0.56c-0.25-0.14-0.41-0.32-0.47-0.55
		c-0.06-0.23-0.05-0.45,0.04-0.67c0.09-0.22,0.24-0.37,0.43-0.46c0.2-0.09,0.44-0.07,0.72,0.07c0.36,0.21,0.76,0.36,1.21,0.46
		c0.44,0.1,0.88,0.15,1.32,0.15c0.65,0,1.12-0.1,1.4-0.31c0.28-0.2,0.43-0.46,0.43-0.77c0-0.26-0.1-0.47-0.3-0.62
		c-0.2-0.15-0.55-0.28-1.04-0.39l-1.53-0.33c-1.71-0.36-2.56-1.25-2.56-2.66c0-0.61,0.16-1.14,0.49-1.59
		c0.33-0.46,0.78-0.81,1.36-1.07c0.58-0.25,1.26-0.38,2.03-0.38c0.51,0,1,0.06,1.49,0.18s0.92,0.3,1.29,0.54
		c0.23,0.14,0.37,0.31,0.42,0.53c0.05,0.22,0.04,0.43-0.05,0.62c-0.09,0.2-0.23,0.34-0.43,0.42c-0.2,0.08-0.45,0.05-0.75-0.1
		c-0.3-0.15-0.62-0.27-0.95-0.34c-0.33-0.07-0.68-0.11-1.03-0.11c-0.57,0-1.01,0.11-1.32,0.33c-0.31,0.22-0.47,0.51-0.47,0.86
		c0,0.26,0.09,0.47,0.28,0.64c0.19,0.16,0.52,0.29,0.99,0.39l1.53,0.33c1.75,0.38,2.63,1.24,2.63,2.58c0,0.6-0.16,1.12-0.48,1.57
		c-0.32,0.45-0.77,0.8-1.36,1.04C169.22,73.25,168.53,73.38,167.73,73.38z"/>
	<path class="st0" d="M177.87,73.35c-0.34,0-0.61-0.09-0.79-0.28c-0.18-0.19-0.27-0.46-0.27-0.8V65.4h-2.4
		c-0.59,0-0.88-0.29-0.88-0.87c0-0.58,0.29-0.87,0.88-0.87h6.91c0.59,0,0.88,0.29,0.88,0.87c0,0.58-0.29,0.87-0.88,0.87h-2.4v6.86
		c0,0.34-0.09,0.61-0.26,0.8C178.47,73.25,178.21,73.35,177.87,73.35z"/>
	<path class="st0" d="M185.92,73.23c-0.73,0-1.1-0.37-1.1-1.1v-7.37c0-0.73,0.37-1.1,1.1-1.1h4.73c0.55,0,0.83,0.27,0.83,0.81
		c0,0.55-0.28,0.83-0.83,0.83h-3.83v2.24h3.51c0.56,0,0.84,0.28,0.84,0.83c0,0.55-0.28,0.83-0.84,0.83h-3.51v2.39h3.83
		c0.55,0,0.83,0.27,0.83,0.81c0,0.55-0.28,0.83-0.83,0.83H185.92z"/>
	<path class="st0" d="M195.81,73.35c-0.34,0-0.61-0.09-0.79-0.28c-0.18-0.19-0.27-0.46-0.27-0.8v-7.53c0-0.71,0.36-1.07,1.07-1.07
		h3.3c1.07,0,1.89,0.26,2.47,0.77c0.58,0.52,0.87,1.23,0.87,2.16c0,0.71-0.18,1.31-0.55,1.78c-0.37,0.47-0.89,0.8-1.57,0.97
		c0.48,0.14,0.87,0.49,1.18,1.04l0.84,1.56c0.19,0.34,0.23,0.66,0.11,0.96c-0.12,0.29-0.4,0.44-0.85,0.44
		c-0.3,0-0.54-0.06-0.73-0.19c-0.19-0.13-0.35-0.32-0.49-0.58l-1.3-2.4c-0.14-0.25-0.3-0.43-0.5-0.52c-0.2-0.09-0.43-0.14-0.71-0.14
		h-1.03v2.74c0,0.34-0.09,0.61-0.26,0.8C196.42,73.25,196.16,73.35,195.81,73.35z M196.86,68h1.89c1.13,0,1.7-0.45,1.7-1.36
		c0-0.9-0.57-1.34-1.7-1.34h-1.89V68z"/>
	<path class="st0" d="M206.98,73.35c-0.34,0-0.61-0.09-0.79-0.28c-0.18-0.19-0.27-0.46-0.27-0.8v-7.64c0-0.72,0.35-1.09,1.06-1.09
		c0.7,0,1.04,0.36,1.04,1.09v7.64C208.02,72.99,207.68,73.35,206.98,73.35z"/>
	<path class="st0" d="M212.65,73.35c-0.65,0-0.98-0.34-0.98-1.02V64.6c0-0.34,0.08-0.61,0.25-0.79c0.17-0.18,0.39-0.27,0.67-0.27
		c0.24,0,0.42,0.05,0.56,0.14c0.14,0.09,0.29,0.25,0.46,0.47l4.4,5.6v-5.21c0-0.67,0.33-1,0.98-1s0.98,0.33,0.98,1v7.83
		c0,0.3-0.08,0.54-0.23,0.71c-0.15,0.18-0.36,0.26-0.62,0.26c-0.25,0-0.45-0.05-0.6-0.15c-0.15-0.1-0.31-0.26-0.48-0.47l-4.4-5.6
		v5.21C213.63,73.01,213.3,73.35,212.65,73.35z"/>
	<path class="st0" d="M228.35,73.38c-1.08,0-1.99-0.2-2.73-0.61c-0.75-0.41-1.31-0.98-1.7-1.71c-0.39-0.73-0.58-1.59-0.58-2.58
		c0-1.01,0.2-1.89,0.6-2.63c0.4-0.74,0.98-1.32,1.74-1.72c0.76-0.41,1.67-0.61,2.74-0.61c0.49,0,0.98,0.05,1.47,0.16
		c0.49,0.11,0.96,0.29,1.41,0.54c0.24,0.14,0.39,0.32,0.44,0.54c0.05,0.23,0.02,0.45-0.07,0.66c-0.1,0.21-0.25,0.37-0.45,0.46
		c-0.2,0.09-0.45,0.07-0.73-0.06c-0.61-0.32-1.29-0.47-2.05-0.47c-0.97,0-1.69,0.27-2.18,0.81c-0.48,0.54-0.73,1.31-0.73,2.33
		c0,1.02,0.25,1.8,0.74,2.32c0.49,0.52,1.22,0.79,2.19,0.79c0.52,0,1.06-0.08,1.63-0.24v-1.87h-1.22c-0.56,0-0.84-0.25-0.84-0.76
		c0-0.51,0.28-0.76,0.84-0.76h2.13c0.55,0,0.83,0.28,0.83,0.84v3.15c0,0.24-0.05,0.43-0.14,0.6c-0.09,0.16-0.25,0.28-0.45,0.35
		c-0.41,0.14-0.86,0.26-1.37,0.35C229.34,73.33,228.84,73.38,228.35,73.38z"/>
</g>
<path class="st1" d="M55.38,53.8c-0.97,0-1.71-0.27-2.23-0.8c-0.52-0.53-0.78-1.31-0.78-2.33V29.61c0-2.06,1.03-3.09,3.09-3.09
	h13.07c1.55,0,2.33,0.76,2.33,2.29c0,1.55-0.78,2.33-2.33,2.33H58.28v6.57h9.4c1.58,0,2.37,0.76,2.37,2.29
	c0,1.55-0.79,2.33-2.37,2.33h-9.4v8.33C58.28,52.75,57.31,53.8,55.38,53.8z"/>
<path class="st1" d="M81.09,53.87c-2.01,0-3.76-0.4-5.25-1.2s-2.64-1.94-3.46-3.4c-0.82-1.46-1.22-3.2-1.22-5.21
	c0-1.99,0.41-3.71,1.22-5.18c0.81-1.46,1.97-2.59,3.46-3.38c1.49-0.79,3.24-1.18,5.25-1.18c2.01,0,3.76,0.4,5.25,1.18
	c1.49,0.79,2.65,1.92,3.48,3.38c0.83,1.46,1.24,3.19,1.24,5.18c0,2.01-0.41,3.75-1.24,5.21c-0.83,1.46-1.99,2.6-3.48,3.4
	S83.1,53.87,81.09,53.87z M81.09,49.55c1.22,0,2.22-0.45,3-1.34c0.78-0.89,1.17-2.28,1.17-4.16c0-1.86-0.39-3.23-1.17-4.11
	c-0.78-0.88-1.78-1.32-3-1.32c-1.22,0-2.22,0.44-2.98,1.32c-0.76,0.88-1.15,2.25-1.15,4.11c0,1.89,0.38,3.27,1.15,4.16
	C78.87,49.11,79.86,49.55,81.09,49.55z"/>
<path class="st1" d="M100.84,53.87c-1.12,0-2.27-0.1-3.46-0.31c-1.18-0.2-2.26-0.55-3.23-1.03c-0.64-0.33-1.05-0.75-1.24-1.26
	c-0.19-0.51-0.2-1.01-0.02-1.49c0.18-0.48,0.5-0.85,0.96-1.09c0.46-0.24,0.99-0.24,1.6,0.02c1.04,0.43,2.01,0.74,2.88,0.92
	c0.88,0.18,1.73,0.27,2.54,0.27c1.07,0,1.86-0.17,2.37-0.52c0.51-0.34,0.76-0.8,0.76-1.36c0-0.89-0.65-1.45-1.95-1.68l-4.01-0.73
	c-1.6-0.28-2.83-0.85-3.67-1.72c-0.84-0.87-1.26-2-1.26-3.4c0-1.27,0.36-2.37,1.07-3.29c0.71-0.92,1.69-1.63,2.94-2.14
	c1.25-0.51,2.69-0.76,4.32-0.76c2.24,0,4.23,0.43,5.96,1.3c0.59,0.28,0.95,0.68,1.09,1.18c0.14,0.51,0.11,1.01-0.1,1.49
	c-0.2,0.48-0.53,0.85-0.99,1.09c-0.46,0.24-1.01,0.22-1.64-0.06c-0.84-0.38-1.6-0.66-2.29-0.82c-0.69-0.17-1.34-0.25-1.95-0.25
	c-1.15,0-1.97,0.19-2.48,0.55c-0.51,0.37-0.76,0.83-0.76,1.39c0,0.89,0.6,1.45,1.8,1.68l4.01,0.73c1.66,0.28,2.92,0.83,3.78,1.66
	c0.87,0.83,1.3,1.96,1.3,3.38c0,1.96-0.76,3.49-2.29,4.58C105.35,53.32,103.33,53.87,100.84,53.87z"/>
<path class="st1" d="M120.55,53.87c-5.27,0-7.91-2.56-7.91-7.68v-7.18h-1.6c-1.5,0-2.25-0.71-2.25-2.14c0-1.45,0.75-2.18,2.25-2.18
	h1.6v-2.9c0-1.96,0.97-2.94,2.9-2.94c1.91,0,2.87,0.98,2.87,2.94v2.9h3.63c1.48,0,2.22,0.73,2.22,2.18c0,1.43-0.74,2.14-2.22,2.14
	h-3.63v6.95c0,1.07,0.25,1.87,0.75,2.41c0.5,0.53,1.29,0.8,2.39,0.8c0.38,0,0.74-0.04,1.07-0.11c0.33-0.08,0.64-0.13,0.92-0.15
	c0.36-0.03,0.65,0.09,0.88,0.34c0.23,0.25,0.34,0.78,0.34,1.57c0,0.64-0.1,1.18-0.31,1.62c-0.2,0.45-0.56,0.77-1.07,0.97
	c-0.33,0.13-0.78,0.24-1.36,0.32C121.45,53.83,120.96,53.87,120.55,53.87z"/>
<path class="st1" d="M135.41,53.87c-2.22,0-4.12-0.4-5.71-1.2c-1.59-0.8-2.81-1.94-3.67-3.4c-0.85-1.46-1.28-3.19-1.28-5.18
	c0-1.94,0.41-3.64,1.24-5.1c0.83-1.46,1.96-2.61,3.4-3.44c1.44-0.83,3.1-1.24,4.99-1.24c2.73,0,4.89,0.86,6.49,2.58
	c1.6,1.72,2.41,4.04,2.41,6.97c0,0.97-0.6,1.45-1.8,1.45h-11.23c0.2,1.48,0.74,2.55,1.62,3.23c0.88,0.68,2.09,1.01,3.65,1.01
	c0.61,0,1.3-0.07,2.08-0.21c0.78-0.14,1.52-0.39,2.23-0.74c0.74-0.36,1.36-0.43,1.87-0.21c0.51,0.22,0.86,0.58,1.05,1.09
	c0.19,0.51,0.19,1.04,0,1.59c-0.19,0.55-0.62,1-1.28,1.36c-0.89,0.48-1.88,0.85-2.96,1.09C137.44,53.75,136.41,53.87,135.41,53.87z
	 M134.61,38.13c-1.22,0-2.21,0.37-2.96,1.11c-0.75,0.74-1.22,1.77-1.39,3.09h8.25C138.35,39.53,137.06,38.13,134.61,38.13z"/>
<path class="st1" d="M148.71,53.8c-1.99,0-2.98-0.98-2.98-2.94V37.29c0-1.94,0.94-2.9,2.83-2.9c1.88,0,2.83,0.97,2.83,2.9v0.69
	c0.92-2.27,2.81-3.49,5.69-3.67c0.64-0.05,1.13,0.11,1.47,0.48c0.34,0.37,0.53,0.97,0.55,1.81c0.05,0.79-0.11,1.41-0.48,1.87
	c-0.37,0.46-0.99,0.74-1.85,0.84l-0.88,0.08c-2.85,0.28-4.28,1.73-4.28,4.36v7.11C151.61,52.82,150.64,53.8,148.71,53.8z"/>
<g>
	<path class="st1" d="M164.41,53.8c-1.07,0-1.83-0.36-2.29-1.07c-0.46-0.71-0.45-1.59,0.04-2.64l9.78-21.43
		c0.41-0.87,0.89-1.5,1.45-1.89c0.56-0.39,1.21-0.59,1.95-0.59c0.74,0,1.39,0.2,1.95,0.59c0.56,0.4,1.03,1.03,1.41,1.89l9.86,21.43
		c0.48,1.07,0.5,1.96,0.06,2.66c-0.45,0.7-1.17,1.05-2.16,1.05c-0.87,0-1.53-0.2-2.01-0.61c-0.47-0.41-0.89-1.04-1.24-1.91
		l-1.6-3.67h-12.57l-1.57,3.67c-0.38,0.89-0.79,1.53-1.22,1.93C165.81,53.6,165.2,53.8,164.41,53.8z M175.26,32.82l-4.24,10.16h8.63
		l-4.32-10.16H175.26z"/>
	<path class="st1" d="M193.9,60.67c-1.94,0-2.9-0.98-2.9-2.94V37.29c0-1.94,0.94-2.9,2.83-2.9c1.91,0,2.87,0.97,2.87,2.9v0.11
		c0.53-0.94,1.32-1.69,2.37-2.25c1.04-0.56,2.22-0.84,3.51-0.84c1.63,0,3.06,0.4,4.3,1.18c1.24,0.79,2.2,1.91,2.88,3.36
		c0.69,1.45,1.03,3.18,1.03,5.2c0,2.01-0.34,3.75-1.03,5.21c-0.69,1.46-1.65,2.6-2.88,3.4c-1.24,0.8-2.67,1.2-4.3,1.2
		c-1.25,0-2.39-0.27-3.42-0.8c-1.03-0.53-1.83-1.25-2.39-2.14v6.8C196.77,59.69,195.81,60.67,193.9,60.67z M200.86,49.55
		c1.22,0,2.22-0.45,2.98-1.34c0.76-0.89,1.15-2.28,1.15-4.16c0-1.86-0.38-3.23-1.15-4.11c-0.76-0.88-1.76-1.32-2.98-1.32
		c-1.25,0-2.25,0.44-3.02,1.32c-0.76,0.88-1.15,2.25-1.15,4.11c0,1.89,0.38,3.27,1.15,4.16C198.6,49.11,199.61,49.55,200.86,49.55z"
		/>
	<path class="st1" d="M216.29,60.67c-1.94,0-2.9-0.98-2.9-2.94V37.29c0-1.94,0.94-2.9,2.83-2.9c1.91,0,2.87,0.97,2.87,2.9v0.11
		c0.53-0.94,1.32-1.69,2.37-2.25c1.04-0.56,2.22-0.84,3.51-0.84c1.63,0,3.06,0.4,4.3,1.18c1.24,0.79,2.2,1.91,2.88,3.36
		c0.69,1.45,1.03,3.18,1.03,5.2c0,2.01-0.34,3.75-1.03,5.21c-0.69,1.46-1.65,2.6-2.88,3.4c-1.24,0.8-2.67,1.2-4.3,1.2
		c-1.25,0-2.39-0.27-3.42-0.8c-1.03-0.53-1.83-1.25-2.39-2.14v6.8C219.16,59.69,218.2,60.67,216.29,60.67z M223.24,49.55
		c1.22,0,2.22-0.45,2.98-1.34c0.76-0.89,1.15-2.28,1.15-4.16c0-1.86-0.38-3.23-1.15-4.11c-0.76-0.88-1.76-1.32-2.98-1.32
		c-1.25,0-2.25,0.44-3.02,1.32c-0.76,0.88-1.15,2.25-1.15,4.11c0,1.89,0.38,3.27,1.15,4.16C220.99,49.11,222,49.55,223.24,49.55z"/>
</g>
<line class="st2" x1="48.3" y1="26.24" x2="48.3" y2="54.99"/>
<g>
	<path class="st3" d="M33.92,52.9C33.92,52.9,33.92,52.9,33.92,52.9l-0.3-0.11c-0.01,0.02-0.03,0.03-0.04,0.05l0.59,1.27
		c0.05-0.02,0.1-0.05,0.14-0.08C34.1,53.69,33.96,53.3,33.92,52.9z"/>
	<path class="st3" d="M34.44,53.09l-0.12-0.04v0c0.05,0.26,0.15,0.52,0.29,0.74c0.03-0.03,0.05-0.06,0.08-0.08
		C34.57,53.51,34.49,53.31,34.44,53.09z"/>
	<path class="st3" d="M36.18,52.71c-0.01-0.03-0.01-0.05,0-0.08l-0.58-0.21h-0.02c0.02,0.19,0.02,0.38-0.01,0.58L36.18,52.71z"/>
	<path class="st3" d="M34.05,54.14L34.05,54.14l-0.58-1.25c-0.02,0-0.04,0-0.07,0l-0.46,1.25H34.05z"/>
	<path class="st3" d="M38.23,51.91l-1.49,0.69c0,0.03,0.01,0.05,0,0.08l1.55,0.57C38.44,52.8,38.41,52.32,38.23,51.91z"/>
	<polygon class="st3" points="36.4,53 35.99,54.14 36.4,54.14 	"/>
	<path class="st3" d="M37.2,54.43L37.2,54.43l-0.47-1.02v0v1.05h-0.86l-0.01,0.02C36.32,54.63,36.79,54.6,37.2,54.43z"/>
	<path class="st3" d="M35.02,54.14l-0.01-0.01c0,0-0.01,0.01-0.01,0.01h0H35.02z"/>
	<path class="st3" d="M38.24,53.38L38.24,53.38l-1.51-0.55v0v0.25l0.6,1.29h0C37.73,54.17,38.06,53.83,38.24,53.38z"/>
	<path class="st3" d="M31.83,53.57c0.04,0,0.08,0.01,0.12,0.01c-0.13-0.22-0.22-0.46-0.26-0.72v0.19c0,0.13,0.02,0.25,0.06,0.36
		c0,0,0,0,0,0C31.78,53.47,31.8,53.52,31.83,53.57z"/>
	<path class="st3" d="M33.2,52.7c0-0.02,0-0.04,0-0.07l-0.6-0.22h-0.78c-0.05,0.3,0,0.6,0.11,0.87L33.2,52.7z"/>
	<path class="st3" d="M36.23,49.76C36.23,49.76,36.23,49.76,36.23,49.76l0.05-0.02c0.01-0.01,0.01-0.02,0.02-0.03h-0.06
		C36.24,49.72,36.24,49.74,36.23,49.76z"/>
	<path class="st3" d="M31.69,52.41L31.69,52.41v0.02C31.69,52.43,31.7,52.42,31.69,52.41L31.69,52.41z"/>
	<path class="st3" d="M34.38,54.13c-0.01,0-0.01,0.01-0.02,0.01h0.03C34.39,54.14,34.38,54.13,34.38,54.13z"/>
	<path class="st3" d="M35.14,53.34l-0.13,0.06c0,0,0,0,0,0c-0.05,0.1-0.11,0.2-0.18,0.29c0.02,0.03,0.04,0.06,0.06,0.08
		C34.99,53.65,35.08,53.5,35.14,53.34C35.14,53.34,35.14,53.34,35.14,53.34z"/>
	<path class="st3" d="M33.28,52.47l-0.03-0.06h-0.31l0.29,0.11C33.25,52.5,33.26,52.49,33.28,52.47z"/>
	<path class="st3" d="M38.5,53.4c0.41-1.13-0.17-2.38-1.29-2.79c-0.16-0.06-0.31-0.1-0.47-0.12v0.11c0.15,0.02,0.29,0.06,0.44,0.11
		c1.07,0.39,1.62,1.58,1.23,2.65c-0.39,1.07-1.58,1.62-2.65,1.23c-0.1-0.04-0.19-0.08-0.28-0.13c0,0,0,0,0,0h-0.21h0c0,0,0,0,0,0
		c0.14,0.09,0.29,0.17,0.46,0.23C36.84,55.11,38.09,54.53,38.5,53.4z"/>
	<path class="st3" d="M30.75,53.81c-0.07-0.06-0.16-0.1-0.27-0.1c-0.01,0-0.03,0-0.04,0c0,0-0.01,0-0.01,0l0,0c0,0,0,0,0,0
		c-0.21,0.02-0.37,0.2-0.37,0.41c0,0.23,0.19,0.42,0.42,0.42s0.42-0.19,0.42-0.42c0-0.11-0.04-0.21-0.12-0.29c0,0,0,0,0,0l0,0
		C30.78,53.82,30.77,53.82,30.75,53.81z M30.49,54.28c-0.09,0-0.16-0.07-0.16-0.16c0-0.09,0.07-0.16,0.16-0.16
		c0.09,0,0.16,0.07,0.16,0.16C30.65,54.21,30.58,54.28,30.49,54.28z"/>
	<path class="st3" d="M36.24,52.83l-0.71,0.33v0c-0.02,0.08-0.04,0.16-0.07,0.23c-0.08,0.23-0.21,0.44-0.36,0.62
		c0.04,0.04,0.08,0.08,0.13,0.12h0h0.61h0l0.46-1.25C36.27,52.87,36.25,52.86,36.24,52.83z"/>
	<path class="st3" d="M34.29,49.71H33.1h-0.33c-0.05,0-0.09,0-0.14,0.01h0c0,0,0,0,0,0c0,0,0,0-0.01,0
		c-0.16,0.02-0.3,0.08-0.43,0.16h2.08C34.28,49.83,34.28,49.77,34.29,49.71z"/>
	<path class="st3" d="M31.48,53.63C31.49,53.63,31.49,53.63,31.48,53.63C31.49,53.63,31.49,53.63,31.48,53.63
		c-0.03-0.06-0.05-0.13-0.07-0.2c0,0,0,0,0,0c-0.01-0.02-0.01-0.03-0.02-0.05l-0.29,0.43l0,0c0,0,0,0,0,0
		c0.01,0.02,0.02,0.05,0.03,0.07C31.23,53.77,31.35,53.68,31.48,53.63z"/>
	<path class="st3" d="M27.56,53.78L27.56,53.78l-0.11-0.95c-0.15,0.01-0.31,0.01-0.48,0.01c-0.17,0-0.33,0-0.48-0.01l-0.11,0.95
		v1.22h0.1h1.07V53.78z"/>
	<path class="st3" d="M16.37,53.26v1.73h0.89v-1.73c-0.13,0.01-0.28,0.01-0.44,0.01C16.65,53.27,16.5,53.27,16.37,53.26z"/>
	<path class="st3" d="M11.64,50.86c-0.22,0-0.27-0.02-0.27-0.02l-0.13,4.15h0.78l-0.12-4.15C11.91,50.84,11.86,50.86,11.64,50.86z"
		/>
	<path class="st3" d="M22.21,51.23c0,0-0.05,0.02-0.25,0.02c-0.2,0-0.25-0.02-0.25-0.02l-0.15,3.76h0.4h0.4L22.21,51.23z"/>
	<path class="st3" d="M35.26,52.41h-0.09c0.04,0.26,0.01,0.53-0.07,0.8c0,0,0,0,0,0l0.11-0.05C35.28,52.91,35.29,52.66,35.26,52.41z
		"/>
	<path class="st3" d="M33.58,52.41l-0.02,0.05c0.02,0.01,0.03,0.03,0.05,0.04l0.2-0.09H33.58z"/>
	<path class="st3" d="M33.66,52.61c0,0.02,0,0.04,0,0.07l0.25,0.09c0-0.09,0-0.18,0-0.27L33.66,52.61z"/>
	<path class="st3" d="M33.45,52.42L33.45,52.42l-0.07-0.01l0,0.01C33.41,52.42,33.43,52.42,33.45,52.42z"/>
	<path class="st3" d="M34.94,53.28c0,0,0-0.01,0.01-0.01c0,0,0,0,0,0l-0.35-0.13c0.02,0.09,0.05,0.17,0.09,0.25c0,0,0,0,0,0
		L34.94,53.28C34.94,53.28,34.94,53.28,34.94,53.28z"/>
	<path class="st3" d="M34.67,53.89c0.02,0.03,0.04,0.05,0.06,0.08c0.03-0.02,0.05-0.05,0.08-0.08c-0.02-0.02-0.04-0.05-0.05-0.08
		C34.72,53.84,34.7,53.86,34.67,53.89z"/>
	<path class="st3" d="M34.41,52.95c-0.02-0.17-0.03-0.36-0.01-0.54H34.3c-0.02,0.17-0.02,0.33,0,0.5v0L34.41,52.95
		C34.41,52.95,34.41,52.95,34.41,52.95z"/>
	<path class="st3" d="M34.74,53.53C34.74,53.53,34.74,53.53,34.74,53.53c0.01,0.02,0.02,0.04,0.03,0.06
		c0.02-0.03,0.05-0.07,0.06-0.1c0,0,0,0,0,0L34.74,53.53z"/>
	<path class="st3" d="M34.57,53.01L34.57,53.01l0.42,0.15v0c0.08-0.25,0.1-0.5,0.06-0.75h-0.5C34.52,52.61,34.53,52.81,34.57,53.01z
		"/>
	<path class="st3" d="M36.22,52.49c0.02-0.02,0.03-0.04,0.06-0.06l-0.01-0.02H36L36.22,52.49z"/>
	<path class="st3" d="M32.77,54.14h0.05h0l0.47-1.29c-0.02-0.01-0.03-0.03-0.05-0.04l-1.27,0.59c0.05,0.09,0.1,0.18,0.16,0.26
		c0.15,0.07,0.28,0.19,0.36,0.34c0.08,0.06,0.16,0.1,0.25,0.14c0,0,0,0,0,0C32.76,54.14,32.76,54.14,32.77,54.14z"/>
	<path class="st3" d="M31.78,54.88c0.24,0,0.44-0.17,0.48-0.4c0-0.03,0.01-0.06,0.01-0.09v-0.01c0,0,0,0,0,0c0,0,0,0,0,0
		c0-0.08-0.02-0.15-0.06-0.21c-0.08-0.16-0.24-0.26-0.43-0.26c-0.03,0-0.07,0-0.1,0.01c0,0-0.01,0-0.01,0c0,0,0,0,0,0l-0.02,0
		c0,0,0,0,0,0c-0.21,0.06-0.36,0.25-0.36,0.47C31.29,54.66,31.51,54.88,31.78,54.88z M31.78,54.2c0.1,0,0.19,0.08,0.19,0.19
		c0,0.1-0.08,0.19-0.19,0.19c-0.1,0-0.19-0.08-0.19-0.19C31.6,54.28,31.68,54.2,31.78,54.2z"/>
	<path class="st3" d="M34.66,54.47C34.66,54.47,34.66,54.47,34.66,54.47l-0.06,0c0,0,0,0,0,0c-0.55,0.36-1.26,0.46-1.92,0.22
		c-0.04-0.01-0.08-0.03-0.13-0.05c-0.04,0.14-0.13,0.26-0.23,0.36h2.49h0.64C35.15,54.86,34.89,54.68,34.66,54.47z"/>
	<path class="st3" d="M37.19,50.87l-0.45,1.24v0.31h0v0v0.04v0l1.44-0.67c0,0,0,0,0,0C37.97,51.38,37.63,51.05,37.19,50.87z"/>
	<path class="st3" d="M23.49,19.06l-9.23,7.44v-3.34H9.52v7.16l-8.46,6.83h5.21v17.84h0.44h1.32c-0.03-0.03-0.04-0.06-0.04-0.1V52.1
		c0-0.76,0.02-1.47,0.64-1.49c0.38-0.01,0.54,0.31,0.5,0.6c-0.01,0.08-0.08,0.14-0.16,0.13c-0.08-0.01-0.14-0.08-0.13-0.16
		c0.01-0.1-0.03-0.27-0.16-0.3C8.47,50.84,8.28,51,8.28,52.1v2.79c0,0.04-0.02,0.08-0.04,0.1h0.08h1.02h0.62v-4.64v0h3.39v0v4.64
		h0.9h1.73v-1.76c-0.4-0.05-0.52-0.13-0.52-0.13s0.58-0.64,0.39-2.76l-0.16,0.18l-0.44-0.34c0.27-0.47,0.66-0.72,1.09-0.89
		c0,0,0.15,0.38,0.49,0.38c0.34,0,0.49-0.38,0.49-0.38c0.43,0.16,0.82,0.42,1.09,0.89l-0.44,0.34l-0.16-0.18
		c-0.19,2.11,0.39,2.76,0.39,2.76s-0.12,0.08-0.52,0.13v1.76h2.88l-0.13-4.25h1.56h1.56l-0.14,4.25h0.75h1.7c0-0.39,0-1.18,0-1.22
		l-0.04-1c-0.59-0.06-0.87-0.16-0.87-0.16s0.49-0.94,0.7-2.91c-0.49-0.26-1.13-0.88-0.91-1.44c0.28-0.72,0.72-1.13,1.07-1.44
		c0.15,0.29,0.21,0.56,0.23,0.75c-0.13,0.04-0.29,0.17-0.29,0.17c0,0-0.42,0.49-0.47,0.8c-0.03,0.15,0.19,0.43,0.42,0.66
		c0.03-0.41,0.05-0.86,0.05-1.35c0,0,0.13-0.17,0.37-0.23c-0.02-0.25-0.1-0.56-0.25-0.86l0.21-0.16c0.09,0.12,0.25,0.57,0.28,0.97
		c0.1-0.02,0.22-0.03,0.35-0.04c-0.12,0.11-0.23,0.23-0.32,0.36c-0.47,0.61-0.53,1.19-0.37,1.63c-0.1-0.1-0.21-0.21-0.32-0.32
		c-0.01,0.17-0.03,0.34-0.05,0.5c0.31,0.16,0.58,0.23,0.58,0.19c0,0,0,0,0,0c0.02,0.02,0.04,0.04,0.06,0.06
		c0.22,0.22,0.53,0.34,0.87,0.34c0.39,0,0.8-0.16,1.18-0.47c0.01-0.01,0.02-0.02,0.03-0.03c0.44-0.34,0.86-0.98,0.97-1.15
		c0.21,0.78-0.91,1.28-0.97,1.15c0.22,1.91,0.69,2.82,0.69,2.82s-0.28,0.09-0.87,0.16l-0.04,1h0c0,0.04,0,0.83,0,1.22h1.9h1.22
		c-0.12-0.11-0.21-0.24-0.25-0.4c-0.13,0.14-0.31,0.22-0.51,0.22c-0.38,0-0.69-0.31-0.69-0.69c0-0.22,0.1-0.42,0.27-0.55
		c0,0,0,0,0,0l0,0l-1-0.36c-0.07-0.03-0.11-0.11-0.08-0.18c0.02-0.06,0.08-0.1,0.14-0.09c0.01,0,0.02,0,0.04,0.01l1.33,0.48h0
		c0.16,0,0.32,0.06,0.43,0.15l0.08-0.12l0.21-0.31v0c-0.02-0.01-0.05-0.03-0.09-0.05l-0.15,0.35l-0.02,0.04l-0.16-0.06l-1.57-0.57
		c0-0.01,0.01-0.01,0.01-0.02c0.02-0.02,0.04-0.04,0.06-0.06l-0.24-0.09c0-0.01,0.01-0.01,0.01-0.02c0.28-0.32,0.98-0.09,1.07-0.06
		c0,0,0,0,0,0c0,0,0,0,0,0c0,0,0,0,0,0c-0.1-0.06-0.21-0.12-0.31-0.17c0,0,0.59-0.95,0.95-1.86v-0.27c0-0.31,0.1-0.59,0.27-0.82l0,0
		c-0.11,0.05-0.21-0.03-0.21-0.03l0.05-0.44c0.17-0.27,0.73-0.47,0.73-0.47l2-0.17l0.19-0.62c-0.04-0.01-0.07-0.02-0.07-0.02
		c0.08-0.36,0.32-1.13,0.36-1.25c0-0.01-0.01-0.01-0.02-0.02c0,0,0.18-0.13,0.51-0.21c0,0,0,0,0,0l0.02-0.19
		c-0.5-0.14-0.67-0.59-0.73-0.97c-0.36-0.09-0.3-0.42-0.3-0.42c0.04-0.13,0.1-0.19,0.17-0.22l-0.1,0l0.03-0.5
		c0,0-0.21-0.15-0.13-0.36c0,0,0.13,0.06,0.29-0.01c0,0-0.23-0.16-0.08-0.57c0,0,0.12,0.33,1.15,0.14c0,0,0.63-0.07,0.88,0.33
		c0.45-0.03,0.54,0.59,0.54,0.59c-0.05-0.08-0.19-0.19-0.19-0.19c0.14,0.16,0.12,0.47,0.11,0.51c0.06,0.03,0.12,0.09,0.15,0.2
		c0,0,0.05,0.5-0.42,0.48c-0.15,0.51-0.45,0.77-0.7,0.9l0.02,0.17c0.18-0.09,0.38-0.15,0.6-0.15v-0.04h1.21V46h0.07v0.33H37.1v0.06
		h-0.95c0.34,0.15,0.62,0.39,0.74,0.5c0.24-0.21,0.55-0.34,0.89-0.35v-0.04h1.21v0.04h0.07v0.33h-0.07v0.06h-1.21v-0.06
		c-0.27,0.01-0.52,0.12-0.7,0.3c0.33,0.3,0.58,0.66,0.58,0.66c-0.14,0.65-0.69,1.68-0.91,2.09v0.21c0.2,0.02,0.4,0.07,0.6,0.14
		c1.32,0.49,2,1.95,1.51,3.27c-0.25,0.68-0.76,1.19-1.38,1.46h0.09h0.76h1.66h0.73V37.15h5.21L23.49,19.06z M27.04,42.12
		c0,0,0.67-0.42,1.33,0.22c1.09,1.05-0.17,2.56,0.83,3.01c0,0-0.37,0.32-0.92,0.17c-0.12-0.03-0.25-0.08-0.37-0.17
		c0.22-0.21,0.37-0.48,0.44-0.8c0.13-0.04,0.22-0.18,0.22-0.35c0-0.17-0.09-0.32-0.22-0.35c-0.15-0.65-0.68-1.13-1.3-1.17
		c-0.05,0.18-0.17,0.39-0.41,0.6c-0.41,0.38-0.82,0.47-1.04,0.49c-0.01,0.02-0.01,0.05-0.02,0.07c-0.13,0.03-0.22,0.18-0.22,0.35
		c0,0.17,0.09,0.31,0.22,0.35c0.07,0.34,0.25,0.64,0.49,0.85c-0.1,0.06-0.2,0.1-0.3,0.12c-0.55,0.15-0.92-0.17-0.92-0.17
		c1-0.46-0.26-1.97,0.83-3.01C26.37,41.7,27.04,42.12,27.04,42.12z M23.77,28.23c0-0.26,0.21-0.47,0.47-0.47h0.98
		c0.26,0,0.47,0.21,0.47,0.47v0.98c0,0.26-0.21,0.47-0.47,0.47h-0.98c-0.26,0-0.47-0.21-0.47-0.47V28.23z M23.77,30.32
		c0-0.26,0.21-0.47,0.47-0.47h0.98c0.26,0,0.47,0.21,0.47,0.47v0.98c0,0.26-0.21,0.47-0.47,0.47h-0.98c-0.26,0-0.47-0.21-0.47-0.47
		V30.32z M21.66,28.23c0-0.26,0.21-0.47,0.47-0.47h0.98c0.26,0,0.47,0.21,0.47,0.47v0.98c0,0.26-0.21,0.47-0.47,0.47h-0.98
		c-0.26,0-0.47-0.21-0.47-0.47V28.23z M21.66,30.28c0-0.26,0.21-0.47,0.47-0.47h0.98c0.26,0,0.47,0.21,0.47,0.47v0.98
		c0,0.26-0.21,0.47-0.47,0.47h-0.98c-0.26,0-0.47-0.21-0.47-0.47V30.28z M21.57,41.61c0.54-0.46,2.5,0.63,2.09,1.65
		c0,0-0.01,0-0.04,0c-0.21-0.68-1.07-1.16-1.84-1.16c-0.78,0-1.28,0.48-1.49,1.16c-0.03,0-0.04,0-0.04,0
		C19.85,42.24,21.03,41.16,21.57,41.61z M20.33,43.39c0.15-0.69,0.82-1.22,1.63-1.22c0.8,0,1.47,0.52,1.63,1.22
		c0.14,0,0.26,0.13,0.26,0.3c0,0.16-0.11,0.3-0.25,0.3c-0.14,0.66-0.74,1.17-1.49,1.23c0.09,0.29,0.26,0.48,0.48,0.65l-0.62,0.78
		l-0.62-0.78c0.22-0.17,0.4-0.36,0.48-0.65c-0.74-0.06-1.35-0.56-1.49-1.23c-0.14,0-0.25-0.13-0.25-0.3
		C20.08,43.52,20.19,43.39,20.33,43.39z M12.56,42.13c0.1-0.2,0.51-0.09,0.46,0.17c0.26-0.15,0.52,0.21,0.37,0.38
		c0.22,0.06,0.23,0.39,0.06,0.5c0,0-0.02-0.01-0.12-0.02c-0.01,0-0.02-0.01-0.02-0.01c-0.12-0.4-0.39-0.74-0.75-0.95L12.56,42.13z
		 M9.9,42.68c-0.16-0.17,0.1-0.53,0.37-0.38c-0.05-0.26,0.36-0.37,0.46-0.17l0.01,0.06c-0.36,0.22-0.63,0.55-0.75,0.95
		c-0.01,0-0.02,0.01-0.02,0.01c-0.09,0.01-0.12,0.02-0.12,0.02C9.67,43.06,9.68,42.73,9.9,42.68z M14.59,50.62
		c-0.06,0-0.09-0.26-0.12-0.63l-0.14-0.01c-0.05-1.36-0.18-2.06-1-2.79v3.07H9.95v-3.07c-0.82,0.74-0.94,1.44-1,2.79l-0.14,0.01
		c-0.03,0.37-0.05,0.63-0.12,0.63c-0.05,0-0.15-0.24-0.23-0.61l-0.25,0.01c-0.3-2.19,0.93-3.82,2.79-4.54
		c0.18-0.13,0.32-0.26,0.42-0.45c-0.7-0.09-1.26-0.58-1.39-1.21c-0.14,0-0.25-0.13-0.25-0.3c0-0.16,0.11-0.3,0.25-0.3
		c0.15-0.69,0.64-1.21,1.44-1.21c0.8,0,1.64,0.52,1.79,1.21c0.14,0,0.25,0.13,0.25,0.3c0,0.16-0.11,0.3-0.25,0.3
		c-0.13,0.63-0.69,1.12-1.39,1.21c0.1,0.18,0.24,0.32,0.42,0.45c1.85,0.71,3.08,2.35,2.79,4.54l-0.25-0.01
		C14.75,50.37,14.64,50.62,14.59,50.62z M15.61,50.57c-0.13,0.13-0.31,0.33-0.44,0.54c-0.42,0.67-0.39,1.28-0.46,1.33
		c-0.05,0.03-0.28-0.88,0.3-1.93c0.05-0.1,0.11-0.18,0.16-0.27L15.61,50.57z M17.83,48.05c-0.09,0.41-0.47,0.73-0.93,0.77
		c0.06,0.2,0.18,0.33,0.34,0.45l0,0c0,0-0.14,0.34-0.43,0.34c-0.29,0-0.43-0.34-0.43-0.34l0,0c0.16-0.12,0.29-0.25,0.34-0.45
		c-0.47-0.04-0.85-0.35-0.93-0.77c-0.22,0-0.2-0.37,0-0.38c0.09-0.38,0.43-0.69,0.85-0.75c0.3,0.11,0.41,0.43,0.47,0.74
		c0.05-0.13,0.15-0.41,0.03-0.7c0.39,0.12,0.63,0.41,0.69,0.71C18.04,47.68,18.05,48.05,17.83,48.05z M18.06,47.85
		c0-0.11-0.08-0.21-0.17-0.23c-0.11-0.39-0.46-0.69-0.89-0.76c0.17,0.21,0.17,0.46,0.13,0.6c-0.05-0.24-0.13-0.49-0.47-0.6
		c-0.44,0.06-0.8,0.36-0.91,0.76c-0.1,0.03-0.17,0.12-0.17,0.23c-0.26,0-0.53-0.13-0.59-0.33c-0.04-0.15,0-0.26,0.05-0.34L14.8,47.1
		l0.13-0.24l0.15,0.25c0.05-0.06,0.1-0.09,0.1-0.09s-0.04,0.04-0.08,0.1l0.29,0.05l-0.17,0.23l-0.15-0.22
		c-0.03,0.07-0.05,0.16,0,0.24c0.12,0.2,0.36,0.21,0.52,0.09c0.14-0.11,0.05-0.23,0.16-0.45c0.27-0.54,0.8-0.7,1.07-0.51
		c0.27-0.19,0.8-0.04,1.07,0.51c0.1,0.21,0.02,0.34,0.16,0.45c0.16,0.12,0.4,0.11,0.52-0.09c0.05-0.08,0.03-0.17,0-0.24l-0.15,0.22
		l-0.17-0.23l0.29-0.05c-0.04-0.06-0.08-0.1-0.08-0.1s0.05,0.03,0.1,0.09l0.15-0.25l0.13,0.24l-0.24,0.07
		c0.05,0.08,0.09,0.2,0.05,0.34C18.58,47.72,18.32,47.85,18.06,47.85z M18.37,50.97c-0.14-0.14-0.26-0.29-0.35-0.42l0.36-0.27
		c0.05,0.07,0.09,0.14,0.14,0.22c0.49,0.88,1.16,0.67,1.16,0.72C19.67,51.28,18.91,51.52,18.37,50.97z M19.6,48.74
		c-0.28,0.92-0.22,2.27-0.35,2.27c-0.13,0-0.62-1.89,0-3.11c0.02-0.04,0.04-0.07,0.06-0.11l0.53,0.39
		C19.75,48.35,19.66,48.53,19.6,48.74z M23.51,47.31v3.34H20.4v-3.09l-0.45,0.62l-0.68-0.51c0,0,0.24-0.52,0.72-0.95
		c0.67-0.59,1.29-0.81,1.29-0.81l0.68,0.85l0.68-0.85c0.79-0.03,1.5,0.11,1.9,0.16l0.15,1.12L23.51,47.31z M25.54,46.89
		c-0.33-0.03-0.56-0.06-0.79-0.06l-0.09-0.69c0.48,0.04,0.98,0.13,1.43,0.26L25.54,46.89z M26.39,47.51
		c-0.05-0.38-0.19-0.8-0.29-0.93c0.36-0.27,0.65-0.49,0.76-0.92c-0.61-0.06-1.1-0.56-1.21-1.17c-0.01,0-0.03,0-0.04-0.01
		c0,0,0,0,0,0c-0.24-0.07-0.21-0.57,0.04-0.57c0-0.02,0.01-0.05,0.02-0.07c0.23-0.03,0.63-0.13,1.03-0.5
		c0.2-0.18,0.33-0.38,0.41-0.58c0.59,0.06,1.07,0.55,1.19,1.16c0.27,0,0.27,0.57,0,0.57c-0.11,0.62-0.6,1.12-1.21,1.17
		c0.11,0.45,0.4,0.65,0.76,0.92c-0.03,0.03-0.06,0.09-0.09,0.16c-0.28,0.17-0.66,0.42-1.01,0.74
		C26.63,47.48,26.51,47.49,26.39,47.51z M28.26,49.77c-0.82,0.66-1.58,0.51-1.95,0.14c-0.38-0.37-0.54-1.12,0.1-1.96
		c0.55-0.71,1.45-1.2,1.72-1.34c-0.01,0.36,0.13,0.74,0.42,1.01c0.26,0.26,0.6,0.4,0.96,0.4c0.02,0,0.04,0,0.07,0
		C29.44,48.29,28.96,49.21,28.26,49.77z M30.48,47.41c0.09,0.09,0.07,0.26-0.04,0.37c-0.11,0.11-0.28,0.13-0.37,0.04
		c0,0-0.01-0.01-0.01-0.01c-0.45,0.26-1.05,0.18-1.47-0.23c-0.42-0.41-0.51-1.02-0.26-1.47c0,0-0.01-0.01-0.01-0.01
		c-0.09-0.09-0.07-0.26,0.04-0.37c0.11-0.11,0.28-0.13,0.37-0.04c0,0,0.01,0.01,0.01,0.01c0.44-0.25,1.03-0.17,1.45,0.23
		c0.01,0.01,0.02,0.01,0.02,0.02c0.05,0.05,0.09,0.1,0.13,0.15c0,0,0.01,0.01,0.01,0.01c0.01,0.01,0.01,0.02,0.02,0.04
		c0,0.02-0.02,0.15-0.16,0.23c-0.11,0.07-0.25,0.01-0.3-0.08c-0.06-0.1-0.03-0.21-0.03-0.21s-0.07,0.09-0.05,0.19
		c0.02,0.14,0.14,0.25,0.32,0.27c0.12,0.02,0.28-0.05,0.35-0.18c0.14,0.34,0.14,0.72-0.03,1.02C30.47,47.4,30.48,47.4,30.48,47.41z"
		/>
	<path class="st3" d="M11.62,44.02c-0.13-0.23-0.46,0.15-0.57,0.18c-0.11,0.04-0.22,0.04-0.27-0.02c-0.05-0.06,0.03-0.13,0.03-0.13
		s-0.16,0.03-0.15,0.17c0.01,0.14,0.23,0.24,0.45,0.2C11.43,44.36,11.7,44.16,11.62,44.02z"/>
	<path class="st3" d="M28.82,46.73c-0.17,0.17-0.17,0.45,0.01,0.62c0.17,0.17,0.45,0.17,0.62-0.01c0.17-0.17,0.17-0.45-0.01-0.62
		C29.26,46.56,28.99,46.56,28.82,46.73z M29.27,47.18c-0.08,0.08-0.21,0.08-0.29,0c-0.08-0.08-0.08-0.21,0-0.29
		c0.08-0.08,0.21-0.08,0.29,0C29.35,46.97,29.35,47.1,29.27,47.18z"/>
	<path class="st3" d="M31.78,49.79L31.78,49.79c0.26-0.25,0.6-0.4,0.99-0.4h1.55c0-0.05,0.01-0.09,0.01-0.14h-2.14
		c-0.43,0-0.81,0.26-0.98,0.63h0.18C31.49,49.84,31.62,49.81,31.78,49.79z"/>
	<path class="st3" d="M12.18,44.42c0.23,0.04,0.45-0.06,0.45-0.2c0.01-0.14-0.15-0.17-0.15-0.17s0.08,0.07,0.03,0.13
		c-0.05,0.06-0.16,0.06-0.27,0.02c-0.12-0.04-0.44-0.41-0.57-0.18C11.59,44.16,11.85,44.36,12.18,44.42z"/>
	<path class="st3" d="M36.76,47.7c-0.02,0.08-0.03,0.15-0.03,0.23v0.81c0.18-0.42,0.33-0.78,0.33-0.78L36.76,47.7z"/>
	<path class="st3" d="M33.77,54.47C33.77,54.47,33.77,54.47,33.77,54.47L33.77,54.47l-0.69,0h0c0,0,0,0,0,0
		C33.32,54.51,33.55,54.51,33.77,54.47z"/>
	<path class="st3" d="M31.96,48.93l-0.04,0c0,0,0,0.01-0.01,0.01h0C31.93,48.94,31.94,48.94,31.96,48.93z"/>
	<polygon class="st3" points="31.3,53.02 31.3,53.02 31.3,53.02 31.3,53.03 	"/>
	<path class="st3" d="M36.73,50.75v0.95l0.32-0.88h0C36.95,50.79,36.84,50.76,36.73,50.75z"/>
	<path class="st3" d="M36.4,49.38v-0.86h-0.14c0,0,0,0,0,0c0.01,0.26,0.01,0.55-0.01,0.86H36.4z"/>
	<path class="st3" d="M34.35,48.92c0.02-0.3,0.03-0.64,0.02-0.97c0,0,0,0,0,0c0,0-0.01,0-0.01,0l-0.23,0.97H34.35z"/>
</g>
</svg>
