<?xml version="1.0" encoding="utf-8"?>
<!-- Generator: Adobe Illustrator 24.0.0, SVG Export Plug-In . SVG Version: 6.00 Build 0)  -->
<svg version="1.1" id="Layer_1" xmlns="http://www.w3.org/2000/svg" xmlns:xlink="http://www.w3.org/1999/xlink" x="0px" y="0px"
	 viewBox="0 0 259 93" style="enable-background:new 0 0 259 93;" xml:space="preserve">
<style type="text/css">
	.st0{fill:#424240;}
	.st1{fill:#FFCD2B;}
	.st2{fill:#80B241;}
	.st3{font-family:'Point-SemiBold';}
	.st4{font-size:2.2442px;}
</style>
<g>
	
		<rect x="13.8" y="25.4" transform="matrix(0.7469 -0.6649 0.6649 0.7469 -27.2108 33.0068)" class="st0" width="31.9" height="53.7"/>
	<g>
		
			<rect x="17.5" y="29.5" transform="matrix(0.7469 -0.6649 0.6649 0.7469 -27.2481 33.0785)" class="st1" width="24.7" height="45.6"/>
		<rect x="3.7" y="39.4" transform="matrix(0.7469 -0.6649 0.6649 0.7469 -25.9384 13.8019)" class="st1" width="3" height="3.2"/>
		<g>
			<rect x="7.7" y="35.7" transform="matrix(0.7469 -0.6649 0.6649 0.7469 -22.5031 15.5892)" class="st1" width="3" height="3.2"/>
			
				<rect x="11.8" y="32.1" transform="matrix(0.7469 -0.6649 0.6649 0.7469 -19.0679 17.3766)" class="st1" width="3" height="3.2"/>
			
				<rect x="15.9" y="28.5" transform="matrix(0.7469 -0.6649 0.6649 0.7469 -15.6326 19.1639)" class="st1" width="3" height="3.2"/>
		</g>
		<rect x="3.7" y="44.3" transform="matrix(0.7469 -0.6649 0.6649 0.7469 -29.1958 15.0524)" class="st1" width="3" height="3.2"/>
		<rect x="7.2" y="48.2" transform="matrix(0.7469 -0.6649 0.6649 0.7469 -30.937 18.399)" class="st1" width="3" height="3.2"/>
		<rect x="10.7" y="52.2" transform="matrix(0.7469 -0.6649 0.6649 0.7469 -32.6782 21.7455)" class="st1" width="3" height="3.2"/>
		<rect x="14.3" y="56.2" transform="matrix(0.7469 -0.6649 0.6649 0.7469 -34.4193 25.092)" class="st1" width="3" height="3.2"/>
		<rect x="17.8" y="60.1" transform="matrix(0.7469 -0.6649 0.6649 0.7469 -36.1605 28.4385)" class="st1" width="3" height="3.2"/>
		<rect x="21.3" y="64.1" transform="matrix(0.7469 -0.6649 0.6649 0.7469 -37.9017 31.785)" class="st1" width="3" height="3.2"/>
		<rect x="24.9" y="68" transform="matrix(0.7469 -0.6649 0.6649 0.7469 -39.6429 35.1316)" class="st1" width="3" height="3.2"/>
		<rect x="28.4" y="72" transform="matrix(0.7469 -0.6649 0.6649 0.7469 -41.384 38.4781)" class="st1" width="3" height="3.2"/>
		<rect x="28.3" y="29.5" transform="matrix(0.7469 -0.6649 0.6649 0.7469 -13.1129 27.6871)" class="st1" width="3" height="3.2"/>
		<rect x="31.9" y="33.4" transform="matrix(0.7469 -0.6649 0.6649 0.7469 -14.854 31.0337)" class="st1" width="3" height="3.2"/>
		<rect x="35.4" y="37.4" transform="matrix(0.7469 -0.6649 0.6649 0.7469 -16.5952 34.3802)" class="st1" width="3" height="3.2"/>
		<rect x="38.9" y="41.3" transform="matrix(0.7469 -0.6649 0.6649 0.7469 -18.3364 37.7267)" class="st1" width="3" height="3.2"/>
		<rect x="42.4" y="45.3" transform="matrix(0.7469 -0.6649 0.6649 0.7469 -20.0776 41.0732)" class="st1" width="3" height="3.2"/>
		<rect x="46" y="49.3" transform="matrix(0.7469 -0.6649 0.6649 0.7469 -21.8187 44.4197)" class="st1" width="3" height="3.2"/>
		<rect x="49.5" y="53.2" transform="matrix(0.7469 -0.6649 0.6649 0.7469 -23.5599 47.7663)" class="st1" width="3" height="3.2"/>
		<rect x="24.7" y="25.6" transform="matrix(0.6649 0.7469 -0.7469 0.6649 29.074 -10.5575)" class="st1" width="3.2" height="3"/>
		<rect x="19.9" y="25.2" transform="matrix(0.6649 0.7469 -0.7469 0.6649 27.1103 -7.1664)" class="st1" width="3.2" height="3"/>
		<g>
			
				<rect x="40.8" y="72.9" transform="matrix(0.7469 -0.6649 0.6649 0.7469 -38.8218 46.9535)" class="st1" width="3" height="3.2"/>
			
				<rect x="44.9" y="69.2" transform="matrix(0.7469 -0.6649 0.6649 0.7469 -35.3865 48.7408)" class="st1" width="3" height="3.2"/>
			
				<rect x="48.9" y="65.6" transform="matrix(0.7469 -0.6649 0.6649 0.7469 -31.9512 50.5281)" class="st1" width="3" height="3.2"/>
		</g>
		<rect x="52.9" y="62.2" transform="matrix(0.6649 0.7469 -0.7469 0.6649 65.7816 -19.3686)" class="st1" width="3.2" height="3"/>
		<rect x="36.5" y="76.6" transform="matrix(0.6649 0.7469 -0.7469 0.6649 71.076 -2.3488)" class="st1" width="3.2" height="3"/>
		<rect x="31.8" y="76.1" transform="matrix(0.6649 0.7469 -0.7469 0.6649 69.1214 1.0583)" class="st1" width="3.2" height="3"/>
		<rect x="53" y="57.2" transform="matrix(0.7469 -0.6649 0.6649 0.7469 -25.2847 51.105)" class="st1" width="3" height="3.2"/>
	</g>
	<g>
		<path class="st0" d="M15.4,40.5l0.7,0.7l-0.6,0.5l-2.1-2.4l1.2-1c0.2-0.2,0.5-0.3,0.8-0.3c0.3,0,0.6,0.1,0.8,0.4
			c0.2,0.2,0.3,0.5,0.3,0.8c0,0.3-0.2,0.5-0.4,0.8L15.4,40.5z M15,40l0.4-0.4c0.1-0.1,0.2-0.2,0.2-0.3c0-0.1,0-0.2-0.1-0.3
			c-0.1-0.1-0.2-0.1-0.3-0.1c-0.1,0-0.2,0-0.4,0.1l-0.4,0.4L15,40z"/>
		<path class="st0" d="M18.8,38l-1,0.9l0.2,0.6l-0.6,0.6l-0.9-3.5l0.3-0.2l3.4,1.3l-0.7,0.6L18.8,38z M18.2,37.8l-0.9-0.4l0.3,0.9
			L18.2,37.8z"/>
		<path class="st0" d="M20.6,35.7l0.7,0.8l-0.6,0.6l-0.7-0.8l-2.4-0.7l0.7-0.6l1.5,0.5l-0.3-1.5l0.7-0.6L20.6,35.7z"/>
		<path class="st0" d="M14.2,49.3l0.7,0.7l-0.6,0.5l-2.1-2.4l1.2-1c0.2-0.2,0.5-0.3,0.8-0.3c0.3,0,0.6,0.1,0.8,0.4
			c0.2,0.2,0.3,0.5,0.3,0.8c0,0.3-0.2,0.5-0.4,0.8L14.2,49.3z M13.8,48.8l0.4-0.4c0.1-0.1,0.2-0.2,0.2-0.3c0-0.1,0-0.2-0.1-0.3
			c-0.1-0.1-0.2-0.1-0.3-0.1c-0.1,0-0.2,0-0.4,0.1l-0.4,0.4L13.8,48.8z"/>
		<path class="st0" d="M18,46.3l0.5,0.5l-1.8,1.6L14.5,46l1.8-1.6l0.5,0.5l-1.1,1l0.4,0.4l1.1-1l0.4,0.5l-1.1,1l0.4,0.4L18,46.3z"/>
		<path class="st0" d="M19.1,42l2.2,2.4l-0.3,0.3l-2.6-0.2l1.2,1.4l-0.6,0.5L16.8,44l0.3-0.3l2.6,0.2l-1.2-1.4L19.1,42z"/>
		<path class="st0" d="M23,42.1L22,43l0.2,0.6l-0.6,0.6l-0.9-3.5l0.3-0.2l3.4,1.3l-0.7,0.6L23,42.1z M22.4,41.8l-0.9-0.4l0.3,0.9
			L22.4,41.8z"/>
		<path class="st0" d="M24.4,38.2l-0.7,0.6l1.7,1.9l-0.6,0.6L23,39.4l-0.7,0.7l-0.5-0.5l2.1-1.9L24.4,38.2z"/>
		<path class="st0" d="M27.6,37.8l0.5,0.5l-1.7,1.5l-2.1-2.4l0.6-0.6l1.7,1.9L27.6,37.8z"/>
		<path class="st0" d="M28.7,36.3l0.7,0.8l-0.6,0.6L28,36.8l-2.4-0.7l0.7-0.6l1.5,0.5l-0.3-1.5l0.7-0.6L28.7,36.3z"/>
		<path class="st0" d="M20.5,52.4c-0.1,0.4-0.3,0.7-0.6,1c-0.4,0.3-0.8,0.5-1.3,0.5c-0.5,0-0.9-0.2-1.2-0.5s-0.4-0.8-0.4-1.2
			c0-0.5,0.2-0.9,0.6-1.2c0.3-0.3,0.7-0.4,1.1-0.5c0.4,0,0.8,0.1,1.1,0.3l-0.6,0.6c-0.2-0.1-0.3-0.1-0.5-0.1c-0.2,0-0.3,0.1-0.5,0.2
			c-0.2,0.2-0.3,0.4-0.3,0.6c0,0.3,0.1,0.5,0.2,0.7c0.2,0.2,0.4,0.3,0.6,0.3c0.3,0,0.5-0.1,0.7-0.2c0.1-0.1,0.2-0.3,0.3-0.5
			s0-0.3,0-0.5l0.6-0.6C20.5,51.6,20.5,52,20.5,52.4z"/>
		<path class="st0" d="M21.6,47.4l2.1,2.4l-0.6,0.6l-0.8-1l-1,0.9l0.8,1l-0.6,0.6l-2.1-2.4l0.6-0.6l0.8,0.9l1-0.9L21,48L21.6,47.4z"
			/>
		<path class="st0" d="M25.6,47.6l-1,0.9l0.2,0.6L24,49.6l-0.9-3.5l0.3-0.2l3.4,1.3l-0.7,0.6L25.6,47.6z M25,47.3l-0.9-0.4l0.3,0.9
			L25,47.3z"/>
		<path class="st0" d="M28.5,45.7l-1.3-0.3l-0.3,0.3l0.7,0.8L27,47l-2.1-2.4l1.2-1.1c0.2-0.2,0.5-0.3,0.8-0.3c0.3,0,0.5,0.1,0.8,0.4
			c0.2,0.2,0.2,0.4,0.3,0.6s0,0.4-0.1,0.6l1.4,0.3L28.5,45.7z M26.5,45.2l0.5-0.4c0.1-0.1,0.2-0.2,0.2-0.3c0-0.1,0-0.2-0.1-0.3
			C26.9,44,26.8,44,26.7,44c-0.1,0-0.2,0-0.3,0.1l-0.5,0.4L26.5,45.2z"/>
		<path class="st0" d="M30.9,41.4c0.3,0.3,0.4,0.7,0.4,1.2c0,0.5-0.2,0.9-0.6,1.2c-0.4,0.3-0.8,0.5-1.3,0.5c-0.5,0-0.9-0.2-1.2-0.5
			c-0.3-0.3-0.4-0.7-0.4-1.2s0.2-0.9,0.6-1.2c0.2-0.2,0.5-0.4,0.8-0.4c0.3-0.1,0.6,0,0.9,0l-0.4,0.7c-0.1,0-0.3,0-0.5,0
			c-0.2,0-0.3,0.1-0.4,0.2c-0.2,0.2-0.3,0.4-0.3,0.6c0,0.3,0.1,0.5,0.2,0.7c0.2,0.2,0.4,0.3,0.7,0.3c0.3,0,0.5-0.1,0.7-0.3
			c0.1-0.1,0.2-0.3,0.3-0.5c0-0.2,0-0.4,0-0.6l-0.8,0.7l-0.4-0.4l1.4-1.3C30.8,41.3,30.8,41.3,30.9,41.4z"/>
		<path class="st0" d="M33.7,40.1l0.5,0.5l-1.8,1.6l-2.1-2.4l1.8-1.6l0.5,0.5l-1.1,1l0.4,0.4l1.1-1l0.4,0.5l-1.1,1l0.4,0.4
			L33.7,40.1z"/>
		<path class="st0" d="M23.9,53.1l2.2,2.4l-0.3,0.3l-2.6-0.2l1.2,1.4l-0.6,0.5l-2.2-2.4l0.3-0.3l2.6,0.2l-1.2-1.4L23.9,53.1z"/>
		<path class="st0" d="M26.6,54.5c-0.5,0-0.9-0.2-1.2-0.5c-0.3-0.3-0.4-0.8-0.4-1.2c0-0.5,0.2-0.9,0.6-1.2c0.4-0.3,0.8-0.5,1.3-0.5
			c0.5,0,0.9,0.2,1.2,0.5c0.3,0.3,0.4,0.8,0.4,1.2c0,0.5-0.2,0.9-0.6,1.2C27.5,54.4,27.1,54.5,26.6,54.5z M27.7,52.8
			c0-0.3-0.1-0.5-0.2-0.7c-0.2-0.2-0.4-0.3-0.6-0.3c-0.3,0-0.5,0.1-0.7,0.2s-0.3,0.4-0.3,0.6c0,0.3,0.1,0.5,0.2,0.7
			c0.2,0.2,0.4,0.3,0.6,0.3c0.3,0,0.5-0.1,0.7-0.2S27.7,53.1,27.7,52.8z"/>
		<path class="st0" d="M29.7,49l-0.7,0.6l1.7,1.9L30,52.1l-1.7-1.9l-0.7,0.6l-0.5-0.5l2.1-1.9L29.7,49z"/>
		<path class="st0" d="M29.6,48.1l0.6-0.6l2.1,2.4l-0.6,0.6L29.6,48.1z"/>
		<path class="st0" d="M34.7,47.5c-0.1,0.4-0.3,0.7-0.6,1c-0.4,0.3-0.8,0.5-1.3,0.5c-0.5,0-0.9-0.2-1.2-0.5
			c-0.3-0.3-0.4-0.8-0.4-1.2c0-0.5,0.2-0.9,0.6-1.2c0.3-0.3,0.7-0.4,1.1-0.5c0.4,0,0.8,0.1,1.1,0.3l-0.6,0.6
			c-0.2-0.1-0.3-0.1-0.5-0.1s-0.3,0.1-0.5,0.2c-0.2,0.2-0.3,0.4-0.3,0.6c0,0.3,0.1,0.5,0.2,0.7c0.2,0.2,0.4,0.3,0.6,0.3
			c0.3,0,0.5-0.1,0.7-0.2c0.1-0.1,0.2-0.3,0.3-0.5s0-0.3,0-0.5l0.6-0.6C34.7,46.7,34.7,47.1,34.7,47.5z"/>
		<path class="st0" d="M37.1,44.8l0.5,0.5L35.7,47l-2.1-2.4l1.8-1.6l0.5,0.5l-1.1,1l0.4,0.4l1.1-1l0.4,0.5l-1.1,1l0.4,0.5L37.1,44.8
			z"/>
	</g>
	
		<rect x="29.8" y="59.9" transform="matrix(0.7469 -0.6649 0.6649 0.7469 -37.9072 37.3232)" class="st0" width="0.6" height="17.2"/>
	<rect x="30.4" y="59.1" transform="matrix(0.7469 -0.6649 0.6649 0.7469 -37.1935 37.6945)" class="st0" width="1" height="17.2"/>
	<rect x="30.5" y="58.6" transform="matrix(0.7469 -0.6649 0.6649 0.7469 -35.8943 37.2575)" class="st0" width="1" height="14.4"/>
	
		<rect x="31.9" y="57.5" transform="matrix(0.7469 -0.6649 0.6649 0.7469 -34.8887 37.7807)" class="st0" width="0.5" height="14.4"/>
	
		<rect x="32.5" y="56.8" transform="matrix(0.7469 -0.6649 0.6649 0.7469 -34.2399 38.1183)" class="st0" width="0.9" height="14.4"/>
	
		<rect x="33.4" y="55.9" transform="matrix(0.7469 -0.6649 0.6649 0.7469 -33.3315 38.5909)" class="st0" width="1.3" height="14.4"/>
	
		<rect x="34.7" y="55.1" transform="matrix(0.7469 -0.6649 0.6649 0.7469 -32.6178 38.9623)" class="st0" width="0.3" height="14.4"/>
	
		<rect x="35.4" y="54.3" transform="matrix(0.7469 -0.6649 0.6649 0.7469 -31.8717 39.3505)" class="st0" width="0.6" height="14.4"/>
	<rect x="36" y="53.7" transform="matrix(0.7469 -0.6649 0.6649 0.7469 -31.2229 39.688)" class="st0" width="1" height="14.4"/>
	
		<rect x="37.1" y="52.6" transform="matrix(0.7469 -0.6649 0.6649 0.7469 -30.2497 40.1944)" class="st0" width="1.2" height="14.4"/>
	
		<rect x="38.2" y="51.9" transform="matrix(0.7469 -0.6649 0.6649 0.7469 -29.536 40.5657)" class="st0" width="0.6" height="14.4"/>
	<rect x="39" y="51" transform="matrix(0.7469 -0.6649 0.6649 0.7469 -28.7249 40.9877)" class="st0" width="0.9" height="14.4"/>
	<rect x="40" y="50.3" transform="matrix(0.7469 -0.6649 0.6649 0.7469 -28.0761 41.3253)" class="st0" width="0.5" height="14.4"/>
	
		<rect x="40.8" y="49.5" transform="matrix(0.7469 -0.6649 0.6649 0.7469 -27.2327 41.7641)" class="st0" width="0.9" height="14.4"/>
	
		<rect x="41.7" y="48.9" transform="matrix(0.7469 -0.6649 0.6649 0.7469 -26.6893 42.0468)" class="st0" width="0.4" height="14.4"/>
	
		<rect x="42.3" y="48.2" transform="matrix(0.7469 -0.6649 0.6649 0.7469 -26.0567 42.376)" class="st0" width="0.7" height="14.4"/>
	
		<rect x="44.2" y="47.2" transform="matrix(0.7469 -0.6649 0.6649 0.7469 -25.8474 43.5979)" class="st0" width="0.4" height="17.2"/>
	
		<rect x="44.8" y="46.5" transform="matrix(0.7469 -0.6649 0.6649 0.7469 -25.2148 43.927)" class="st0" width="0.7" height="17.2"/>
	
		<rect x="45.4" y="45.9" transform="matrix(0.7469 -0.6649 0.6649 0.7469 -24.6308 44.2308)" class="st0" width="0.7" height="17.2"/>
	<text transform="matrix(0.7469 -0.6649 0.6649 0.7469 37.8115 72.7234)" class="st0 st3 st4">PCNPCN</text>
	
		<rect x="27.8" y="16" transform="matrix(0.9999 1.531490e-02 -1.531490e-02 0.9999 0.7772 -0.7335)" class="st0" width="40.9" height="68.8"/>
	<g>
		
			<rect x="32.4" y="21.3" transform="matrix(0.9999 1.531490e-02 -1.531490e-02 0.9999 0.7795 -0.7335)" class="st1" width="31.7" height="58.5"/>
		
			<rect x="32.9" y="16.4" transform="matrix(0.9999 1.531490e-02 -1.531490e-02 0.9999 0.2861 -0.5313)" class="st1" width="3.8" height="4.1"/>
		<g>
			
				<rect x="39.9" y="16.5" transform="matrix(0.9999 1.531490e-02 -1.531490e-02 0.9999 0.2886 -0.6381)" class="st1" width="3.8" height="4.1"/>
			
				<rect x="46.9" y="16.6" transform="matrix(0.9999 1.531490e-02 -1.531490e-02 0.9999 0.291 -0.745)" class="st1" width="3.8" height="4.1"/>
			
				<rect x="53.9" y="16.7" transform="matrix(0.9999 1.531490e-02 -1.531490e-02 0.9999 0.2935 -0.8518)" class="st1" width="3.8" height="4.1"/>
		</g>
		
			<rect x="28.7" y="21" transform="matrix(0.9999 1.531490e-02 -1.531490e-02 0.9999 0.3568 -0.4659)" class="st1" width="3.8" height="4.1"/>
		
			<rect x="28.6" y="27.8" transform="matrix(0.9999 1.531490e-02 -1.531490e-02 0.9999 0.4608 -0.4635)" class="st1" width="3.8" height="4.1"/>
		
			<rect x="28.5" y="34.6" transform="matrix(0.9999 1.531490e-02 -1.531490e-02 0.9999 0.5649 -0.4611)" class="st1" width="3.8" height="4.1"/>
		
			<rect x="28.4" y="41.4" transform="matrix(0.9999 1.531490e-02 -1.531490e-02 0.9999 0.6689 -0.4587)" class="st1" width="3.8" height="4.1"/>
		
			<rect x="28.3" y="48.2" transform="matrix(0.9999 1.531490e-02 -1.531490e-02 0.9999 0.773 -0.4563)" class="st1" width="3.8" height="4.1"/>
		
			<rect x="28.2" y="55" transform="matrix(0.9999 1.531490e-02 -1.531490e-02 0.9999 0.8771 -0.4539)" class="st1" width="3.8" height="4.1"/>
		
			<rect x="28.1" y="61.8" transform="matrix(0.9999 1.531490e-02 -1.531490e-02 0.9999 0.9811 -0.4515)" class="st1" width="3.8" height="4.1"/>
		
			<rect x="28" y="68.6" transform="matrix(0.9999 1.531490e-02 -1.531490e-02 0.9999 1.0852 -0.4491)" class="st1" width="3.8" height="4.1"/>
		
			<rect x="64.8" y="28.4" transform="matrix(0.9999 1.531490e-02 -1.531490e-02 0.9999 0.4739 -1.0179)" class="st1" width="3.8" height="4.1"/>
		
			<rect x="64.7" y="35.2" transform="matrix(0.9999 1.531490e-02 -1.531490e-02 0.9999 0.578 -1.0155)" class="st1" width="3.8" height="4.1"/>
		
			<rect x="64.6" y="42" transform="matrix(0.9999 1.531490e-02 -1.531490e-02 0.9999 0.682 -1.0131)" class="st1" width="3.8" height="4.1"/>
		
			<rect x="64.5" y="48.8" transform="matrix(0.9999 1.531490e-02 -1.531490e-02 0.9999 0.7861 -1.0108)" class="st1" width="3.8" height="4.1"/>
		
			<rect x="64.4" y="55.6" transform="matrix(0.9999 1.531490e-02 -1.531490e-02 0.9999 0.8902 -1.0084)" class="st1" width="3.8" height="4.1"/>
		
			<rect x="64.3" y="62.4" transform="matrix(0.9999 1.531490e-02 -1.531490e-02 0.9999 0.9942 -1.006)" class="st1" width="3.8" height="4.1"/>
		
			<rect x="64.2" y="69.1" transform="matrix(0.9999 1.531490e-02 -1.531490e-02 0.9999 1.0983 -1.0036)" class="st1" width="3.8" height="4.1"/>
		
			<rect x="64.7" y="21.8" transform="matrix(-1.531490e-02 0.9999 -0.9999 -1.531490e-02 91.4873 -42.7695)" class="st1" width="4.1" height="3.8"/>
		
			<rect x="60.7" y="17.2" transform="matrix(-1.531490e-02 0.9999 -0.9999 -1.531490e-02 82.7646 -43.3646)" class="st1" width="4.1" height="3.8"/>
		<g>
			
				<rect x="38.9" y="80.2" transform="matrix(0.9999 1.531490e-02 -1.531490e-02 0.9999 1.2639 -0.6157)" class="st1" width="3.8" height="4.1"/>
			
				<rect x="45.9" y="80.3" transform="matrix(0.9999 1.531490e-02 -1.531490e-02 0.9999 1.2664 -0.7226)" class="st1" width="3.8" height="4.1"/>
			
				<rect x="52.9" y="80.4" transform="matrix(0.9999 1.531490e-02 -1.531490e-02 0.9999 1.2688 -0.8294)" class="st1" width="3.8" height="4.1"/>
		</g>
		
			<rect x="59.7" y="80.7" transform="matrix(-1.531490e-02 0.9999 -0.9999 -1.531490e-02 145.2535 22.0635)" class="st1" width="4.1" height="3.8"/>
		
			<rect x="31.8" y="80.1" transform="matrix(-1.531490e-02 0.9999 -0.9999 -1.531490e-02 116.383 49.4136)" class="st1" width="4.1" height="3.8"/>
		
			<rect x="27.7" y="75.5" transform="matrix(-1.531490e-02 0.9999 -0.9999 -1.531490e-02 107.6372 48.8526)" class="st1" width="4.1" height="3.8"/>
		
			<rect x="64.1" y="75.9" transform="matrix(0.9999 1.531490e-02 -1.531490e-02 0.9999 1.202 -1.0015)" class="st1" width="3.8" height="4.1"/>
	</g>
	<g>
		<path class="st0" d="M43.9,27.8l0,1.3l-1,0l0.1-4.1l2,0c0.4,0,0.7,0.1,1,0.4c0.3,0.3,0.4,0.6,0.4,1c0,0.4-0.1,0.8-0.4,1
			c-0.3,0.3-0.6,0.4-1,0.4L43.9,27.8z M43.9,26.9l0.7,0c0.2,0,0.3-0.1,0.5-0.2c0.1-0.1,0.2-0.3,0.2-0.4c0-0.2-0.1-0.3-0.2-0.4
			c-0.1-0.1-0.3-0.2-0.5-0.2l-0.7,0L43.9,26.9z"/>
		<path class="st0" d="M49.3,28.5l-1.8,0l-0.3,0.7l-1.1,0l2.2-4.1l0.4,0l2,4.2l-1.1,0L49.3,28.5z M48.9,27.7l-0.5-1.1l-0.5,1.1
			L48.9,27.7z"/>
		<path class="st0" d="M52.8,27.8l0,1.4l-1.1,0l0-1.4L50.1,25l1.2,0l1,1.8l1.1-1.7l1.2,0L52.8,27.8z"/>
		<path class="st0" d="M35.1,35.1l0,1.3l-1,0l0.1-4.1l2,0c0.4,0,0.7,0.1,1,0.4c0.3,0.3,0.4,0.6,0.4,1c0,0.4-0.1,0.8-0.4,1
			c-0.3,0.3-0.6,0.4-1,0.4L35.1,35.1z M35.1,34.2l0.7,0c0.2,0,0.3-0.1,0.5-0.2s0.2-0.3,0.2-0.4c0-0.2-0.1-0.3-0.2-0.4
			c-0.1-0.1-0.3-0.2-0.5-0.2l-0.7,0L35.1,34.2z"/>
		<path class="st0" d="M41.2,35.6l0,0.9l-3.1,0l0.1-4.1l3,0l0,0.9l-1.9,0l0,0.7l1.9,0l0,0.8l-1.9,0l0,0.8L41.2,35.6z"/>
		<path class="st0" d="M46.1,32.4L46,36.6l-0.5,0l-2.3-2.5l0,2.4l-1,0l0.1-4.2l0.5,0l2.3,2.5l0-2.4L46.1,32.4z"/>
		<path class="st0" d="M49.6,35.9l-1.8,0l-0.3,0.7l-1.1,0l2.2-4.1l0.4,0l2,4.2l-1.1,0L49.6,35.9z M49.3,35.1L48.8,34l-0.5,1.1
			L49.3,35.1z"/>
		<path class="st0" d="M54.3,33.4l-1.3,0l0,3.2l-1.1,0l0-3.2l-1.3,0l0-0.9l3.6,0.1L54.3,33.4z"/>
		<path class="st0" d="M57.8,35.8l0,0.9l-2.9,0l0.1-4.1l1.1,0l0,3.2L57.8,35.8z"/>
		<path class="st0" d="M60,35.3l0,1.4l-1.1,0l0-1.4l-1.7-2.8l1.2,0l1,1.8l1.1-1.7l1.2,0L60,35.3z"/>
		<path class="st0" d="M38.4,43.4c-0.4,0.3-0.9,0.5-1.4,0.5c-0.6,0-1.2-0.2-1.6-0.7c-0.4-0.4-0.7-0.9-0.6-1.5c0-0.6,0.2-1.1,0.7-1.5
			c0.5-0.4,1-0.6,1.6-0.6c0.5,0,1,0.2,1.4,0.5c0.4,0.3,0.7,0.7,0.8,1.2l-1.1,0c-0.1-0.2-0.2-0.4-0.4-0.5s-0.4-0.2-0.6-0.2
			c-0.3,0-0.6,0.1-0.8,0.3c-0.2,0.2-0.4,0.5-0.4,0.8c0,0.3,0.1,0.6,0.3,0.8c0.2,0.2,0.5,0.4,0.8,0.4c0.2,0,0.5-0.1,0.7-0.2
			s0.3-0.3,0.4-0.5l1.1,0C39,42.7,38.8,43.1,38.4,43.4z"/>
		<path class="st0" d="M43.8,39.8l-0.1,4.1l-1.1,0l0-1.6l-1.7,0l0,1.6l-1.1,0l0.1-4.1l1.1,0l0,1.6l1.7,0l0-1.6L43.8,39.8z"/>
		<path class="st0" d="M47.3,43.3l-1.8,0l-0.3,0.7l-1.1,0l2.2-4.1l0.4,0l2,4.2l-1.1,0L47.3,43.3z M47,42.5l-0.5-1.1l-0.5,1.1
			L47,42.5z"/>
		<path class="st0" d="M51.7,44l-0.9-1.4l-0.6,0l0,1.4l-1,0l0.1-4.1l2.1,0c0.4,0,0.7,0.1,1,0.4c0.3,0.3,0.4,0.6,0.4,1
			c0,0.3-0.1,0.6-0.2,0.8c-0.2,0.2-0.4,0.4-0.6,0.5l1,1.5L51.7,44z M50.2,41.8l0.8,0c0.2,0,0.3,0,0.4-0.2c0.1-0.1,0.2-0.2,0.2-0.4
			c0-0.2-0.1-0.3-0.2-0.4c-0.1-0.1-0.3-0.2-0.4-0.2l-0.8,0L50.2,41.8z"/>
		<path class="st0" d="M57.7,42.1c0,0.6-0.2,1.1-0.7,1.5c-0.4,0.4-1,0.6-1.6,0.6c-0.6,0-1.2-0.2-1.6-0.7c-0.4-0.4-0.7-0.9-0.6-1.5
			c0-0.6,0.2-1.1,0.7-1.5c0.4-0.4,1-0.6,1.6-0.6c0.4,0,0.8,0.1,1.2,0.3c0.4,0.2,0.6,0.5,0.8,0.8l-1,0.3c-0.1-0.2-0.2-0.3-0.4-0.4
			c-0.2-0.1-0.4-0.2-0.6-0.2c-0.3,0-0.6,0.1-0.9,0.3c-0.2,0.2-0.4,0.5-0.4,0.8c0,0.3,0.1,0.6,0.4,0.9c0.2,0.2,0.5,0.4,0.9,0.4
			c0.3,0,0.5-0.1,0.7-0.2c0.2-0.1,0.4-0.3,0.5-0.5l-1.4,0l0-0.8l2.5,0C57.7,41.9,57.7,42,57.7,42.1z"/>
		<path class="st0" d="M61.5,43.3l0,0.9l-3.1,0l0.1-4.1l3,0l0,0.9l-1.9,0l0,0.7l1.9,0l0,0.8l-1.9,0l0,0.8L61.5,43.3z"/>
		<path class="st0" d="M41,47.2l-0.1,4.2l-0.5,0l-2.3-2.5l0,2.4l-1,0l0.1-4.2l0.5,0l2.3,2.5l0-2.4L41,47.2z"/>
		<path class="st0" d="M42.3,50.8c-0.4-0.4-0.7-0.9-0.6-1.5c0-0.6,0.2-1.1,0.7-1.5c0.4-0.4,1-0.6,1.6-0.6c0.6,0,1.2,0.2,1.6,0.7
			c0.4,0.4,0.7,0.9,0.6,1.5c0,0.6-0.2,1.1-0.7,1.5s-1,0.6-1.6,0.6C43.3,51.4,42.7,51.2,42.3,50.8z M44.7,50.1
			c0.2-0.2,0.4-0.5,0.4-0.8c0-0.3-0.1-0.6-0.3-0.8c-0.2-0.2-0.5-0.4-0.8-0.4s-0.6,0.1-0.8,0.3c-0.2,0.2-0.4,0.5-0.4,0.8
			c0,0.3,0.1,0.6,0.3,0.8c0.2,0.2,0.5,0.4,0.8,0.4S44.5,50.4,44.7,50.1z"/>
		<path class="st0" d="M50,48.2l-1.3,0l0,3.2l-1.1,0l0-3.2l-1.3,0l0-0.9l3.6,0.1L50,48.2z"/>
		<path class="st0" d="M50.6,47.3l1.1,0l-0.1,4.1l-1.1,0L50.6,47.3z"/>
		<path class="st0" d="M56,51.1c-0.4,0.3-0.9,0.5-1.4,0.5c-0.6,0-1.2-0.2-1.6-0.7s-0.7-0.9-0.6-1.5c0-0.6,0.2-1.1,0.7-1.5
			c0.4-0.4,1-0.6,1.6-0.6c0.5,0,1,0.2,1.4,0.5c0.4,0.3,0.7,0.7,0.8,1.2l-1.1,0c-0.1-0.2-0.2-0.4-0.4-0.5c-0.2-0.1-0.4-0.2-0.6-0.2
			c-0.3,0-0.6,0.1-0.8,0.3c-0.2,0.2-0.4,0.5-0.4,0.8c0,0.3,0.1,0.6,0.3,0.8s0.5,0.4,0.8,0.4c0.2,0,0.5-0.1,0.7-0.2
			c0.2-0.1,0.3-0.3,0.4-0.5l1.1,0C56.7,50.4,56.4,50.8,56,51.1z"/>
		<path class="st0" d="M60.5,50.7l0,0.9l-3.1,0l0.1-4.1l3,0l0,0.9l-1.9,0l0,0.7l1.9,0l0,0.8l-1.9,0l0,0.8L60.5,50.7z"/>
	</g>
	
		<rect x="23.5" y="65.6" transform="matrix(1.531490e-02 -0.9999 0.9999 1.531490e-02 -31.9498 99.4869)" class="st0" width="22" height="0.8"/>
	
		<rect x="25" y="65.3" transform="matrix(1.531490e-02 -0.9999 0.9999 1.531490e-02 -30.5449 100.9579)" class="st0" width="22" height="1.3"/>
	
		<rect x="28.5" y="63.6" transform="matrix(1.531490e-02 -0.9999 0.9999 1.531490e-02 -27.0792 100.9721)" class="st0" width="18.4" height="1.3"/>
	
		<rect x="30.5" y="63.9" transform="matrix(1.531490e-02 -0.9999 0.9999 1.531490e-02 -25.0995 103.0449)" class="st0" width="18.4" height="0.7"/>
	
		<rect x="31.9" y="63.7" transform="matrix(1.531490e-02 -0.9999 0.9999 1.531490e-02 -23.8223 104.3822)" class="st0" width="18.4" height="1.2"/>
	
		<rect x="33.7" y="63.5" transform="matrix(1.531490e-02 -0.9999 0.9999 1.531490e-02 -22.0342 106.2544)" class="st0" width="18.4" height="1.7"/>
	
		<rect x="35.2" y="64.1" transform="matrix(1.531490e-02 -0.9999 0.9999 1.531490e-02 -20.6292 107.7254)" class="st0" width="18.4" height="0.4"/>
	
		<rect x="36.7" y="64" transform="matrix(1.531490e-02 -0.9999 0.9999 1.531490e-02 -19.1604 109.2633)" class="st0" width="18.4" height="0.8"/>
	
		<rect x="38" y="63.7" transform="matrix(1.531490e-02 -0.9999 0.9999 1.531490e-02 -17.8832 110.6006)" class="st0" width="18.4" height="1.3"/>
	
		<rect x="40" y="63.6" transform="matrix(1.531490e-02 -0.9999 0.9999 1.531490e-02 -15.9674 112.6065)" class="st0" width="18.4" height="1.6"/>
	
		<rect x="41.4" y="64" transform="matrix(1.531490e-02 -0.9999 0.9999 1.531490e-02 -14.5625 114.0775)" class="st0" width="18.4" height="0.8"/>
	
		<rect x="43.1" y="63.9" transform="matrix(1.531490e-02 -0.9999 0.9999 1.531490e-02 -12.966 115.7491)" class="st0" width="18.4" height="1.2"/>
	
		<rect x="44.4" y="64.1" transform="matrix(1.531490e-02 -0.9999 0.9999 1.531490e-02 -11.6888 117.0864)" class="st0" width="18.4" height="0.7"/>
	
		<rect x="46.1" y="63.9" transform="matrix(1.531490e-02 -0.9999 0.9999 1.531490e-02 -10.0284 118.8249)" class="st0" width="18.4" height="1.2"/>
	
		<rect x="47.2" y="64.3" transform="matrix(1.531490e-02 -0.9999 0.9999 1.531490e-02 -8.9588 119.9448)" class="st0" width="18.4" height="0.5"/>
	
		<rect x="48.5" y="64.1" transform="matrix(1.531490e-02 -0.9999 0.9999 1.531490e-02 -7.7135 121.2487)" class="st0" width="18.4" height="0.9"/>
	
		<rect x="48" y="66.1" transform="matrix(1.531490e-02 -0.9999 0.9999 1.531490e-02 -8.2097 124.3436)" class="st0" width="22" height="0.5"/>
	
		<rect x="49.3" y="65.9" transform="matrix(1.531490e-02 -0.9999 0.9999 1.531490e-02 -6.9644 125.6475)" class="st0" width="22" height="0.9"/>
	
		<rect x="50.5" y="65.9" transform="matrix(1.531490e-02 -0.9999 0.9999 1.531490e-02 -5.8149 126.851)" class="st0" width="22" height="0.9"/>
	<g>
		<path class="st0" d="M38.7,76l0,0.7l-0.3,0l0-1.9l0.9,0c0.2,0,0.3,0.1,0.4,0.2c0.1,0.1,0.2,0.3,0.2,0.5c0,0.2-0.1,0.3-0.2,0.5
			c-0.1,0.1-0.3,0.2-0.5,0.2L38.7,76z M38.7,75.8l0.5,0c0.1,0,0.2,0,0.3-0.1c0.1-0.1,0.1-0.2,0.1-0.3c0-0.1,0-0.2-0.1-0.3
			c-0.1-0.1-0.2-0.1-0.3-0.1l-0.5,0L38.7,75.8z"/>
		<path class="st0" d="M42.9,76.6c-0.2,0.1-0.4,0.2-0.6,0.2c-0.3,0-0.5-0.1-0.7-0.3c-0.2-0.2-0.3-0.4-0.3-0.7c0-0.3,0.1-0.5,0.3-0.7
			s0.4-0.3,0.7-0.3c0.2,0,0.4,0.1,0.6,0.2c0.2,0.1,0.3,0.3,0.4,0.5l-0.4,0c-0.1-0.1-0.1-0.2-0.2-0.3c-0.1-0.1-0.2-0.1-0.4-0.1
			c-0.2,0-0.4,0.1-0.5,0.2c-0.1,0.1-0.2,0.3-0.2,0.5s0.1,0.4,0.2,0.5c0.1,0.1,0.3,0.2,0.5,0.2c0.1,0,0.3,0,0.4-0.1
			c0.1-0.1,0.2-0.2,0.3-0.3l0.4,0C43.2,76.3,43.1,76.5,42.9,76.6z"/>
		<path class="st0" d="M46.5,74.9l0,1.9l-0.2,0l-1.2-1.4l0,1.4l-0.3,0l0-1.9l0.2,0l1.2,1.4l0-1.4L46.5,74.9z"/>
		<path class="st0" d="M48.4,76.2l0,0.7l-0.3,0l0-1.9l0.9,0c0.2,0,0.3,0.1,0.4,0.2s0.2,0.3,0.2,0.5c0,0.2-0.1,0.3-0.2,0.5
			c-0.1,0.1-0.3,0.2-0.5,0.2L48.4,76.2z M48.4,75.9l0.5,0c0.1,0,0.2,0,0.3-0.1c0.1-0.1,0.1-0.2,0.1-0.3c0-0.1,0-0.2-0.1-0.3
			c-0.1-0.1-0.2-0.1-0.3-0.1l-0.5,0L48.4,75.9z"/>
		<path class="st0" d="M52.5,76.7c-0.2,0.1-0.4,0.2-0.6,0.2c-0.3,0-0.5-0.1-0.7-0.3s-0.3-0.4-0.3-0.7c0-0.3,0.1-0.5,0.3-0.7
			c0.2-0.2,0.4-0.3,0.7-0.3c0.2,0,0.4,0.1,0.6,0.2c0.2,0.1,0.3,0.3,0.4,0.5l-0.4,0c-0.1-0.1-0.1-0.2-0.2-0.3s-0.2-0.1-0.4-0.1
			c-0.2,0-0.4,0.1-0.5,0.2c-0.1,0.1-0.2,0.3-0.2,0.5s0.1,0.4,0.2,0.5c0.1,0.1,0.3,0.2,0.5,0.2c0.1,0,0.3,0,0.4-0.1s0.2-0.2,0.3-0.3
			l0.4,0C52.9,76.4,52.7,76.6,52.5,76.7z"/>
		<path class="st0" d="M56.1,75l0,1.9l-0.2,0l-1.2-1.4l0,1.4l-0.3,0l0-1.9l0.2,0l1.2,1.4l0-1.4L56.1,75z"/>
	</g>
	<g>
		<path class="st2" d="M82,48.6v14.5h-9.1V18.8h20.8c4.2,0,7.7,1.4,10.5,4.2c2.8,2.8,4.3,6.4,4.3,10.7c0,4.4-1.4,7.9-4.3,10.7
			c-2.8,2.8-6.4,4.2-10.7,4.2H82z M82,41.2h9.4c2.3,0,4.3-0.7,5.8-2.1c1.5-1.4,2.3-3.2,2.3-5.3c0-2.1-0.8-3.9-2.3-5.3
			c-1.5-1.4-3.4-2.1-5.6-2.1H82V41.2z"/>
		<path class="st2" d="M125.7,48.6v14.5h-9.1V18.8h20.8c4.2,0,7.7,1.4,10.5,4.2c2.8,2.8,4.3,6.4,4.3,10.7c0,4.4-1.4,7.9-4.3,10.7
			c-2.8,2.8-6.4,4.2-10.7,4.2H125.7z M125.7,41.2h9.4c2.3,0,4.3-0.7,5.8-2.1c1.5-1.4,2.3-3.2,2.3-5.3c0-2.1-0.8-3.9-2.3-5.3
			c-1.5-1.4-3.4-2.1-5.6-2.1h-9.5V41.2z"/>
		<path class="st2" d="M196.1,59.1c-4.3,3.3-9.2,4.9-14.7,4.9c-6.6,0-12.2-2.3-16.9-6.8c-4.7-4.5-7-9.9-7-16.2s2.3-11.7,7-16.2
			c4.7-4.5,10.3-6.8,16.9-6.8c5.5,0,10.4,1.6,14.7,4.9s7.1,7.4,8.4,12.4h-9.8c-1.1-2.6-2.9-4.7-5.3-6.3s-5-2.4-8-2.4
			c-4,0-7.3,1.4-10.1,4.2c-2.8,2.8-4.2,6.2-4.2,10.2s1.4,7.3,4.2,10.2c2.8,2.8,6.2,4.2,10.1,4.2c2.9,0,5.6-0.8,8-2.4
			c2.4-1.6,4.1-3.7,5.2-6.3h9.9C203.3,51.7,200.4,55.8,196.1,59.1z"/>
		<path class="st2" d="M253.6,18.8v44.5h-4.7l-27.3-29v28.8h-8.9V18.6h4.7l27.3,28.9V18.8H253.6z"/>
	</g>
	<g>
		<path class="st0" d="M74.7,76.6v2.7H73v-8.1h3.8c0.8,0,1.4,0.3,1.9,0.8c0.5,0.5,0.8,1.2,0.8,2c0,0.8-0.3,1.5-0.8,2
			c-0.5,0.5-1.2,0.8-2,0.8H74.7z M74.7,75.3h1.7c0.4,0,0.8-0.1,1.1-0.4c0.3-0.3,0.4-0.6,0.4-1c0-0.4-0.1-0.7-0.4-1
			c-0.3-0.3-0.6-0.4-1-0.4h-1.8V75.3z"/>
		<path class="st0" d="M85.4,77.7h-3.8l-0.7,1.6H79l4.1-8.2h0.7l4.1,8.2h-1.8L85.4,77.7z M84.8,76.5l-1.3-2.7l-1.3,2.7H84.8z"/>
		<path class="st0" d="M91.9,76.6v2.7h-1.7v-2.7l-3.5-5.4h2l2.3,3.7l2.3-3.7h2L91.9,76.6z"/>
		<path class="st0" d="M100,76.6v2.7h-1.7v-8.1h3.8c0.8,0,1.4,0.3,1.9,0.8c0.5,0.5,0.8,1.2,0.8,2c0,0.8-0.3,1.5-0.8,2
			c-0.5,0.5-1.2,0.8-2,0.8H100z M100,75.3h1.7c0.4,0,0.8-0.1,1.1-0.4c0.3-0.3,0.4-0.6,0.4-1c0-0.4-0.1-0.7-0.4-1
			c-0.3-0.3-0.6-0.4-1-0.4H100V75.3z"/>
		<path class="st0" d="M112,77.8v1.5h-5.9v-8.1h5.8v1.5h-4v1.9h3.9v1.4h-3.9v1.9H112z"/>
		<path class="st0" d="M121.1,71.2v8.2h-0.9l-5-5.3v5.3h-1.6v-8.2h0.9l5,5.3v-5.3H121.1z"/>
		<path class="st0" d="M128.2,77.7h-3.8l-0.7,1.6h-1.8l4.1-8.2h0.7l4.1,8.2h-1.8L128.2,77.7z M127.6,76.5l-1.3-2.7l-1.3,2.7H127.6z"
			/>
		<path class="st0" d="M137.1,77.8v1.5h-5.6v-8.1h1.7v6.7H137.1z"/>
		<path class="st0" d="M142.9,72.6h-2.6v6.7h-1.7v-6.7H136v-1.5h6.9V72.6z"/>
		<path class="st0" d="M148.1,76.6v2.7h-1.7v-2.7l-3.5-5.4h2l2.3,3.7l2.3-3.7h2L148.1,76.6z"/>
		<path class="st0" d="M161.2,78.6c-0.8,0.6-1.7,0.9-2.7,0.9c-1.2,0-2.2-0.4-3.1-1.2c-0.9-0.8-1.3-1.8-1.3-3c0-1.2,0.4-2.1,1.3-3
			c0.9-0.8,1.9-1.2,3.1-1.2c1,0,1.9,0.3,2.7,0.9c0.8,0.6,1.3,1.4,1.5,2.3h-1.8c-0.2-0.5-0.5-0.9-1-1.2c-0.4-0.3-0.9-0.4-1.5-0.4
			c-0.7,0-1.3,0.3-1.9,0.8s-0.8,1.1-0.8,1.9c0,0.7,0.3,1.3,0.8,1.9s1.1,0.8,1.9,0.8c0.5,0,1-0.1,1.5-0.4c0.4-0.3,0.8-0.7,1-1.2h1.8
			C162.5,77.2,162,78,161.2,78.6z"/>
		<path class="st0" d="M171.5,71.2v8.1h-1.8v-3.4h-3.9v3.4H164v-8.1h1.7v3.3h3.9v-3.3H171.5z"/>
		<path class="st0" d="M178.6,77.7h-3.8l-0.7,1.6h-1.8l4.1-8.2h0.7l4.1,8.2h-1.8L178.6,77.7z M178,76.5l-1.3-2.7l-1.3,2.7H178z"/>
		<path class="st0" d="M187,79.3l-1.9-2.9h-1.6v2.9h-1.7v-8.1h4c0.7,0,1.4,0.3,1.9,0.8c0.5,0.5,0.8,1.1,0.8,1.9
			c0,0.6-0.2,1.1-0.5,1.5c-0.3,0.4-0.7,0.7-1.2,0.9l2.1,3H187z M183.5,75.1h1.9c0.4,0,0.7-0.1,1-0.4c0.3-0.2,0.4-0.5,0.4-0.9
			c0-0.4-0.1-0.7-0.4-0.9c-0.3-0.2-0.6-0.4-1-0.4h-1.9V75.1z"/>
		<path class="st0" d="M198.2,75.3c0,1.1-0.4,2.1-1.3,2.9c-0.8,0.8-1.9,1.2-3.1,1.2s-2.3-0.4-3.1-1.2c-0.9-0.8-1.3-1.8-1.3-3
			c0-1.2,0.4-2.1,1.3-3c0.9-0.8,1.9-1.2,3.1-1.2c0.8,0,1.6,0.2,2.3,0.6c0.7,0.4,1.2,1,1.6,1.7l-1.7,0.4c-0.2-0.4-0.6-0.7-1-0.9
			c-0.4-0.2-0.8-0.3-1.3-0.3c-0.7,0-1.4,0.3-1.9,0.8c-0.5,0.5-0.8,1.1-0.8,1.9c0,0.7,0.3,1.4,0.8,1.9c0.5,0.5,1.2,0.8,1.9,0.8
			c0.6,0,1.2-0.2,1.6-0.5c0.5-0.4,0.8-0.8,1-1.4h-3.1v-1.3h4.7C198.2,75,198.2,75.1,198.2,75.3z"/>
		<path class="st0" d="M205.4,77.8v1.5h-5.9v-8.1h5.8v1.5h-4v1.9h3.9v1.4h-3.9v1.9H205.4z"/>
		<path class="st0" d="M216.9,71.2v8.2h-0.9l-5-5.3v5.3h-1.6v-8.2h0.9l5,5.3v-5.3H216.9z"/>
		<path class="st0" d="M219.5,78.2c-0.9-0.8-1.3-1.8-1.3-3c0-1.2,0.4-2.1,1.3-3c0.9-0.8,1.9-1.2,3.1-1.2c1.2,0,2.2,0.4,3.1,1.2
			c0.9,0.8,1.3,1.8,1.3,3c0,1.2-0.4,2.1-1.3,3c-0.9,0.8-1.9,1.2-3.1,1.2C221.4,79.5,220.4,79,219.5,78.2z M224.5,77.1
			c0.5-0.5,0.8-1.1,0.8-1.9c0-0.7-0.3-1.3-0.8-1.9c-0.5-0.5-1.1-0.8-1.9-0.8c-0.7,0-1.3,0.3-1.9,0.8s-0.8,1.1-0.8,1.9
			c0,0.7,0.3,1.3,0.8,1.9s1.1,0.8,1.9,0.8C223.4,77.9,224,77.6,224.5,77.1z"/>
		<path class="st0" d="M234.2,72.6h-2.6v6.7h-1.7v-6.7h-2.6v-1.5h6.9V72.6z"/>
		<path class="st0" d="M235.2,71.2h1.7v8.1h-1.7V71.2z"/>
		<path class="st0" d="M245.3,78.6c-0.8,0.6-1.7,0.9-2.7,0.9c-1.2,0-2.2-0.4-3.1-1.2c-0.9-0.8-1.3-1.8-1.3-3c0-1.2,0.4-2.1,1.3-3
			c0.9-0.8,1.9-1.2,3.1-1.2c1,0,1.9,0.3,2.7,0.9c0.8,0.6,1.3,1.4,1.5,2.3h-1.8c-0.2-0.5-0.5-0.9-1-1.2c-0.4-0.3-0.9-0.4-1.5-0.4
			c-0.7,0-1.3,0.3-1.9,0.8s-0.8,1.1-0.8,1.9c0,0.7,0.3,1.3,0.8,1.9s1.1,0.8,1.9,0.8c0.5,0,1-0.1,1.5-0.4c0.4-0.3,0.8-0.7,1-1.2h1.8
			C246.6,77.2,246.1,78,245.3,78.6z"/>
		<path class="st0" d="M254.1,77.8v1.5h-5.9v-8.1h5.8v1.5h-4v1.9h3.9v1.4h-3.9v1.9H254.1z"/>
	</g>
</g>
</svg>
