<svg id="Layer_1" data-name="Layer 1" xmlns="http://www.w3.org/2000/svg" viewBox="0 0 235 93"><defs><style>.cls-1{fill:#333;}.cls-2{fill:#ff611d;}.cls-3{fill:#ffb80e;}.cls-4{fill:#ff8908;}.cls-5{fill:#fff;}.cls-6{fill:#feac32;}.cls-7{fill:#cbdf46;}</style></defs><title>Sharemydine Logo 235-93</title><path class="cls-1" d="M104.391,42.963a9.469,9.469,0,0,1-4.056-3.157,8.317,8.317,0,0,1-1.578-4.86h6.565a4.262,4.262,0,0,0,1.342,2.967,4.733,4.733,0,0,0,3.314,1.1,5.159,5.159,0,0,0,3.377-1.025,3.409,3.409,0,0,0,1.215-2.7,3.155,3.155,0,0,0-.836-2.241,5.786,5.786,0,0,0-2.068-1.373c-.836-.332-1.988-.71-3.44-1.121a37.169,37.169,0,0,1-4.8-1.736,8.481,8.481,0,0,1-3.156-2.572,7.452,7.452,0,0,1-1.326-4.624,8.19,8.19,0,0,1,1.358-4.735,8.533,8.533,0,0,1,3.8-3.156,14,14,0,0,1,5.634-1.01,12.208,12.208,0,0,1,7.686,2.3,8.536,8.536,0,0,1,3.266,6.423h-6.817a3.533,3.533,0,0,0-1.342-2.619,5.028,5.028,0,0,0-3.3-1.026,4.323,4.323,0,0,0-2.872.915,3.358,3.358,0,0,0-1.073,2.683,2.761,2.761,0,0,0,.8,2.036,6.133,6.133,0,0,0,2.02,1.31c.805.331,1.942.726,3.394,1.168a35.068,35.068,0,0,1,4.86,1.751,8.765,8.765,0,0,1,3.251,2.62,7.366,7.366,0,0,1,1.358,4.608,8.618,8.618,0,0,1-1.279,4.561,8.865,8.865,0,0,1-3.645,3.346,12.637,12.637,0,0,1-5.824,1.247A14.587,14.587,0,0,1,104.391,42.963Z"/><path class="cls-1" d="M151.641,13.167V43.752h-6.123V30.732H132.4v13.02H126.28V13.167H132.4V25.792h13.115V13.167Z"/><path class="cls-1" d="M176.45,37.913H164.267l-2.02,5.839h-6.439L166.855,13.12H174l11.047,30.632h-6.486Zm-1.673-4.893-4.419-12.814-4.434,12.8Z"/><path class="cls-1" d="M204.841,43.752l-6.723-11.915H195.23V43.752h-6.139V13.167H200.58a13.355,13.355,0,0,1,6.045,1.247,8.7,8.7,0,0,1,3.74,3.377A9.47,9.47,0,0,1,209.86,28a9.057,9.057,0,0,1-5.208,3.345l7.323,12.405ZM195.2,27.228h5.129a5.125,5.125,0,0,0,3.724-1.2,4.5,4.5,0,0,0,1.231-3.361,4.29,4.29,0,0,0-1.231-3.267,5.269,5.269,0,0,0-3.724-1.152H195.2Z"/><path class="cls-1" d="M223.369,18.122v7.655h10.29v4.876h-10.29v8.1h11.6v5H217.151V13.12H234.89v5Z"/><path class="cls-2" d="M123.755,57.008V79.766H119.21v-14.8l-6.108,14.8h-3.471l-6.124-14.8v14.8H98.931V57.008h5.192l7.2,16.855,7.244-16.918Z"/><path class="cls-2" d="M149.621,57.008l-7.7,14.835v7.891h-4.561V71.843l-7.733-14.835h5.145l4.955,10.4,4.735-10.4Z"/><path class="cls-1" d="M169.79,58.4a9.994,9.994,0,0,1,4.2,4.009,11.806,11.806,0,0,1,1.484,6.013,11.68,11.68,0,0,1-1.484,5.981,9.987,9.987,0,0,1-4.2,3.961,13.68,13.68,0,0,1-6.312,1.405h-7.97V57.008H163.4A13.675,13.675,0,0,1,169.79,58.4Zm-.931,15.466a7.493,7.493,0,0,0,1.957-5.508,7.639,7.639,0,0,0-1.957-5.539A7.4,7.4,0,0,0,163.3,60.8h-3.156v15.04H163.3A7.494,7.494,0,0,0,168.859,73.863Z"/><path class="cls-1" d="M186.724,57.008V79.766h-4.561V57.008Z"/><path class="cls-1" d="M213.9,79.766h-4.577L198.986,64.142V79.766h-4.5V56.977h4.561l10.337,15.64V56.977H213.9Z"/><path class="cls-1" d="M226.289,60.686V66.4h7.654v3.614h-7.654v6.028h8.632v3.725h-13.13V56.977H235v3.709Z"/><rect class="cls-2" x="0.343" y="3.004" width="86.468" height="86.468" rx="9.769"/><path class="cls-3" d="M61.465,59.96c-.347,2.446-1.152,6.391-2.92,8.143-2.335,2.32-9.3,5.334-18.827,7.307a11.834,11.834,0,0,1-7.639-1.026,64.715,64.715,0,0,1-8.032-4.734,55.241,55.241,0,0,0,22.22-1.973A55.388,55.388,0,0,0,61.465,59.96Z"/><path class="cls-4" d="M33.658,72.4a24.2,24.2,0,0,0,3.487.2,18.438,18.438,0,0,0,4.23-.71c2.746-.569,5.366-1.231,7.78-1.989a36.436,36.436,0,0,0,9.469-4.151,5.374,5.374,0,0,1-.962,1.452c-1.579,1.579-5.461,3.409-10.4,4.972-2.43.757-5.05,1.42-7.78,1.988a10.8,10.8,0,0,1-6.9-.694,24.62,24.62,0,0,1-3.329-2.036c1.578.331,2.209.615,3.156.789A11.664,11.664,0,0,1,33.658,72.4Z"/><path class="cls-5" d="M68.709,59.246s4.419-2.336,9.753-5.808c2.872-1.878,4.939-3.772,4.45-5.176-.552-1.752-4.592-.268-9.043,1.957a42.428,42.428,0,0,0-9,6.17h0a63.52,63.52,0,0,0-21.037,2.636A63.534,63.534,0,0,0,21.553,71.761a63.267,63.267,0,0,0,25.614-2.289,62.414,62.414,0,0,0,17.47-8.885c-.395,2.825-1.326,7.355-3.346,9.359-2.7,2.683-10.7,6.155-21.668,8.412a13.6,13.6,0,0,1-8.79-1.153,75.943,75.943,0,0,1-9.248-5.444,55.759,55.759,0,0,0,7.354,5.35,17.485,17.485,0,0,0,11.568,2.351,59.394,59.394,0,0,0,9.074-2.1,61.771,61.771,0,0,0,13.494-6.218A45.958,45.958,0,0,0,68.709,59.246Zm-6.534-.237c.552,1.752-6.455,5.508-15.671,8.4s-17.107,3.8-17.66,2.067,6.171-6.486,15.372-9.374S61.623,57.242,62.175,59.009Z"/><path class="cls-5" d="M20.259,43.578l.442.395c-.379-.521-.111-.868.237-1.247s.726-.884,1.167-1.405l1.026,1.105h.079l-.836-1.389c.568-.6,1.12-1.183,1.688-1.751.237-.253.5-.474.8-.742l1.342,1.42h.11l-.931-1.578a2.1,2.1,0,0,1,2.572.111,2.368,2.368,0,0,1,.932,2.6l-.411-.379c.395.773.19,1.168-1.01,2l-.836-.947-.111.095.663,1.168c-1.01.489-1.973.962-2.967,1.42-.079,0-.284,0-.363-.142a2.8,2.8,0,0,1-.363-.584l-.2.189.347.79-6.518,2.793ZM25.325,41.8l.126-.111a2.02,2.02,0,0,0-1.373-1.578Z"/><path class="cls-5" d="M44.452,46.451a2.255,2.255,0,0,1,1.736,1.373,2.162,2.162,0,0,1-.426,2.446,3.035,3.035,0,0,1-1.089.71A15.069,15.069,0,0,0,40.3,53.063a1.31,1.31,0,0,1-1.578.142,1.23,1.23,0,0,1-.449-1.682c.017-.029.035-.058.054-.085a4.608,4.608,0,0,1,1.184-1.231A10.584,10.584,0,0,0,42.4,47.539,2.38,2.38,0,0,1,44.452,46.451Z"/><path class="cls-5" d="M28.529,48.3c.489.773,1.309.647,2,.836,0,0,.315-.3.315-.457a11.649,11.649,0,0,0-.22-1.5l.82-.426a4.624,4.624,0,0,1-4.261,6.786,4.528,4.528,0,0,1-3.882-2.477l.963-.5c.236.347.441.694.678.994s.552.426.8,0a1.193,1.193,0,0,1,.174-.221,1.326,1.326,0,0,0,.331-1.815Zm1.152,1.768c-.379-.174-.742-.553-1.358-.3a1.561,1.561,0,0,0-1.136,1.578,1.6,1.6,0,0,1,0,.458c-.079.457.158.647.552.489a11.648,11.648,0,0,0,2.131-1.042C30.549,50.79,30.485,50.57,29.681,50.065Z"/><path class="cls-5" d="M29.255,35.4l-.442-.126-.269-.11a3.634,3.634,0,0,0,.142-.884c0-.126-.2-.347-.315-.332-.553,0-1.168,0-1.357.647l-1.752-.5c.2-.647-.269-1.01-.5-1.451a.483.483,0,0,0-.426,0,7.627,7.627,0,0,0-.663.836l-.568-.2a3.257,3.257,0,0,1,6.155,2.13Zm-2.794-1.83a1.581,1.581,0,0,0,1.468-.647.316.316,0,0,0-.079-.332,2.81,2.81,0,0,0-2-.663.408.408,0,0,0-.284.253A1.341,1.341,0,0,0,26.461,33.573Z"/><path class="cls-5" d="M22.942,20.884a1.407,1.407,0,0,1-.126.458c-.048.142,0,.174-.111.268a4.819,4.819,0,0,0-.884-.158c-.126,0-.347.221-.331.332,0,.536,0,1.168.663,1.341l-.584,1.815c-.647-.221-1.01.268-1.452.5v.426a9.688,9.688,0,0,0,.836.663l-.2.568a3.3,3.3,0,0,1,2.194-6.218Zm-1.894,2.809A1.578,1.578,0,0,0,20.4,22.21a.361.361,0,0,0-.331.095,2.787,2.787,0,0,0-.663,1.988.411.411,0,0,0,.252.284A1.309,1.309,0,0,0,21.048,23.693Z"/><path class="cls-5" d="M35.788,45.156A3.156,3.156,0,1,1,38.948,42c0,.051,0,.1,0,.154A3.155,3.155,0,0,1,35.788,45.156Zm0-5.239a2.162,2.162,0,1,0,2.162,2.162v-.016a2.178,2.178,0,0,0-2.115-2.146Z"/><path class="cls-5" d="M32.742,26.518a2.636,2.636,0,1,1-2.635,2.652A2.667,2.667,0,0,1,32.742,26.518Zm0,4.482a1.846,1.846,0,1,0-1.91-1.78v.013a1.861,1.861,0,0,0,1.908,1.815h.017Z"/><path class="cls-5" d="M53.164,44.415a2.163,2.163,0,1,1-.032,0Zm1.578,2.193a1.555,1.555,0,1,1-.047,0Z"/><path class="cls-5" d="M43.837,40.406l.173-.126.3-.158c.347.268.631.647.947.694s.679-.978.552-1.578l1.389-.789,1.421.442c.315.095.442,0,.394-.363s-.11-.631-.173-.978l.473-.269a3.153,3.153,0,0,1-5.43,3.206C43.867,40.46,43.852,40.433,43.837,40.406Zm4.356-.915a2.738,2.738,0,0,0-.947,0,1.168,1.168,0,0,0-.824,1.431,1.272,1.272,0,0,0,.05.147.41.41,0,0,0,.395.2,6.175,6.175,0,0,0,1.4-.71C48.776,40.106,48.729,39.933,48.193,39.491Z"/><path class="cls-5" d="M44.894,46.277a4.079,4.079,0,0,1-.568-.474,1.357,1.357,0,0,0-2.288,0c-.379.442-.647.979-.995,1.468A14.271,14.271,0,0,0,40,48.723c.41-.41.836-.8,1.231-1.247s.82-1.1,1.294-1.578,1.041-.363,1.452.3c-1.058.158-1.578.963-2.225,1.673a21.432,21.432,0,0,1-2.1,1.862c-.569.489-1.168.963-1.768,1.436-.41-.457-.394-.962.174-1.578s.947-.742,1.325-1.184c.632-.71,1.184-1.483,1.768-2.241a8.252,8.252,0,0,1,.568-.71,1.768,1.768,0,0,1,3.046.284,2.973,2.973,0,0,1,.268.442Z"/><path class="cls-5" d="M46.52,50.191c.315.584.189,1.01-.49,1.278s-1.578.584-2.43.884a2.343,2.343,0,0,0-.789.458c1.136-.363,2.288-.663,3.409-1.074s1.089-1.01.663-1.909a3.655,3.655,0,0,1-.174-.758,1.579,1.579,0,0,1,.61,2.147,1.607,1.607,0,0,1-.089.142,2.664,2.664,0,0,1-1.342.915,19.947,19.947,0,0,0-4.608,1.878,1.073,1.073,0,0,1-1.505-.193.962.962,0,0,1-.073-.107,22.85,22.85,0,0,1,5.161-2.572A6.476,6.476,0,0,0,46.52,50.191Z"/><path class="cls-5" d="M18.4,33.336c.442.663.931,1.31,1.325,2a.8.8,0,0,1-.2,1.12.529.529,0,0,1-.05.032.979.979,0,0,1-1.247,0,1.9,1.9,0,0,1-.568-.71c-.347-.789-.631-1.578-.947-2.4-.142-.363.142-.505.363-.678a.427.427,0,0,1,.647,0c.221.221.395.41.6.615Z"/><path class="cls-5" d="M14.909,34a2.352,2.352,0,0,1,3.961-2.494A4.041,4.041,0,0,0,14.909,34Z"/><path class="cls-5" d="M17.86,31.9l.868-.221v.126l-.521.4h0l.632-.19h0l-.537.553v.157c0,.048-.095.111-.095.111a1.388,1.388,0,0,1-.236-.189.946.946,0,0,0-1.318.236.919.919,0,0,0-.1.19,3.272,3.272,0,0,0,.158.915l-.379-.142a1.552,1.552,0,0,1-.284.316.976.976,0,0,1-.536,0l.221-.253a.746.746,0,0,0,.189-.284l-.679.426c0-.473.142-.694.853-.947l-.3-.11c.315-.426.5-.553.789-.521.173-.458.647-.473.994-.631A1.373,1.373,0,0,1,17.86,31.9Z"/><path class="cls-5" d="M29.886,37.565a6.922,6.922,0,0,0,2.414-2.02,1.16,1.16,0,0,1,.647-.331,10.167,10.167,0,0,1-2.84,3.156l1.12-.126c-.489.8-1.42.694-1.846,1.326L28.26,37.992l2.368-1.8.142.158Z"/><path class="cls-5" d="M33.184,18.391c.142-.237.458-.679.71-1.152s.679-.395,1.089-.284.679.347.568.836c-.268,1.326-.457,2.667-.789,3.977a1.324,1.324,0,0,1-1.278,1.2,1.577,1.577,0,0,1-1.5-2.256A23.656,23.656,0,0,1,33.184,18.391Z"/><path class="cls-5" d="M37.966,17.807a5.712,5.712,0,0,0-6.2-2.146,3.3,3.3,0,0,1,6.2,2.146Z"/><path class="cls-5" d="M37.6,17.965l-.868-.237h0l.647.458v.142h-1.5a2.3,2.3,0,0,1,0-.332A1.278,1.278,0,0,0,34.8,16.55a1.261,1.261,0,0,0-.493.026c-.284,0-.505.442-.758.663a1.59,1.59,0,0,1-.41.189V17.16l-1.231-.474v-.221H32.7v-.079l-.963-.347c.537-.457.837-.457,1.815,0l-.189-.378c.6-.237,1.026.173,1.5.315a3.153,3.153,0,0,1,1.578.758C36.8,17.286,37.508,17.254,37.6,17.965Z"/><path class="cls-6" d="M48.6,51.327l1.72-1.405,1.389,1.721-1.705,1.388Z"/><path class="cls-6" d="M28.213,20.679l1.357,1.847-1.815,1.8-1.578-1.973Z"/><path class="cls-6" d="M46.614,32.184l.837,2.509-2.51.837c-.173-.758-.362-1.468-.473-2.178a.626.626,0,0,1,.268-.426A15.894,15.894,0,0,1,46.614,32.184Z"/><path class="cls-6" d="M41.343,43.578v-2.1h2.115V43.31Z"/><path class="cls-6" d="M18.933,50.648V48.613h2.052v1.815Z"/><path class="cls-5" d="M35.883,56.709a16.244,16.244,0,0,1-8.112,3.251,11.832,11.832,0,0,1-6.123-1.026,6.072,6.072,0,0,1-1.578-1.168,2.163,2.163,0,0,1-.6-2.115,1.373,1.373,0,0,1,1.548-1.172l.03,0a6.617,6.617,0,0,1,1.578.505,19.979,19.979,0,0,0,8.207,2.289,44.384,44.384,0,0,0,4.545-.458C35.567,56.8,35.693,56.74,35.883,56.709ZM22.153,55.6c1.389,2.194,5.934,2.746,8.585,2.241A20.128,20.128,0,0,1,22.153,55.6Z"/><path class="cls-5" d="M19.123,55.257v1.578h-.142a1.941,1.941,0,0,0-1.8-.647,3.3,3.3,0,0,0-2.147.994,13.31,13.31,0,0,0-1.1,1.578c-.537-.5-.537-.552,0-1.12a6.591,6.591,0,0,1,3.487-1.878Z"/><path class="cls-5" d="M46.82,48.2l-1.184-1.783a5.271,5.271,0,0,1,.836.3.663.663,0,0,0,.868-.174c.237-.284.474-.552.695-.852a.915.915,0,0,1,1.258-.3l0,0c-.11.126-.189.284-.252.268-.679,0-.947.411-1.215.884s-.332.7-.521,1.026A5.653,5.653,0,0,1,46.82,48.2Z"/><path class="cls-7" d="M37.414,36.934a1.089,1.089,0,0,1,0-2.162,1.1,1.1,0,0,1,1.057,1.073,1.073,1.073,0,0,1-1.057,1.089Z"/><path class="cls-7" d="M23.526,26.913a1.073,1.073,0,0,1,1,1.143l0,.04a1.076,1.076,0,1,1-1.092-1.186C23.461,26.91,23.493,26.91,23.526,26.913Z"/><path class="cls-7" d="M18.428,40.027a1.089,1.089,0,0,1-1.1,1.074h0a1.066,1.066,0,1,1,1.1-1.09Z"/><path class="cls-7" d="M36.151,53.158a1.089,1.089,0,0,1-1.119,1.058h-.017a1.073,1.073,0,0,1-.147-2.141,1.032,1.032,0,0,1,.242.011A1.073,1.073,0,0,1,36.151,53.158Z"/><path class="cls-7" d="M36.767,25.414a.87.87,0,0,1-.838-.9V24.5a.821.821,0,0,1,.835-.806H36.8a.869.869,0,0,1,.853.883v.017A.9.9,0,0,1,36.767,25.414Z"/><path class="cls-5" d="M42.511,37.644a1.688,1.688,0,0,1-2.338-.486c-.027-.042-.053-.085-.076-.129a3.243,3.243,0,0,1-.4-1.783,25.965,25.965,0,0,0-.284-6.992,2.144,2.144,0,0,1,.347-1.373,1.436,1.436,0,0,1,2-.376,1.42,1.42,0,0,1,.292.266,2.791,2.791,0,0,1,.774,2.493,28.9,28.9,0,0,1-.821,3.267c-.268.9-.679,1.752-.931,2.651C40.586,36.808,40.9,37.3,42.511,37.644ZM41.454,27.118a8.451,8.451,0,0,1,0,4.734C42.527,30.022,42.527,28.1,41.454,27.118Z"/><path class="cls-5" d="M41.233,25.887l-1.247.3a10.8,10.8,0,0,0,.1-1.752,13.858,13.858,0,0,0-.458-1.894l.663.127V24.53A1.194,1.194,0,0,0,41.233,25.887Z"/></svg>