<svg width="228" height="49" viewBox="0 0 228 49" fill="none" xmlns="http://www.w3.org/2000/svg">
<path d="M82.0973 27.6657H72.8796V24.3488H87.963L78.7454 40.9334H87.963V44.2503H72.8796L82.0973 27.6657Z" fill="#3C27D8"/>
<path d="M102.077 24.3488V27.6657H93.6978V32.6411H100.402V35.958H93.6978V40.9334H102.077V44.2503H90.346V24.3488H102.077Z" fill="#3C27D8"/>
<path d="M110.85 39.2749H108.336V44.2503H104.984V24.3488H112.526C114.612 24.3488 116.388 25.0787 117.855 26.5385C119.33 27.9896 120.068 29.7474 120.068 31.8118C120.068 33.8763 119.334 35.6341 117.868 37.0852C116.943 38.0009 115.9 38.6314 114.739 38.9769L120.068 44.2503H115.878L110.85 39.2749ZM108.336 27.6657V35.958H112.526C113.687 35.958 114.673 35.5563 115.485 34.753C116.305 33.9411 116.716 32.9607 116.716 31.8118C116.716 30.663 116.305 29.6869 115.485 28.8836C114.673 28.0717 113.687 27.6657 112.526 27.6657H108.336Z" fill="#3C27D8"/>
<path d="M132.899 45.0796C129.887 45.0796 127.317 44.0301 125.187 41.9311C123.066 39.8234 122.005 37.2796 122.005 34.2995C122.005 31.3195 123.066 28.78 125.187 26.681C127.317 24.5733 129.887 23.5195 132.899 23.5195C135.91 23.5195 138.477 24.5733 140.598 26.681C142.727 28.78 143.792 31.3195 143.792 34.2995C143.792 37.2796 142.727 39.8234 140.598 41.9311C138.477 44.0301 135.91 45.0796 132.899 45.0796ZM132.899 41.7626C134.985 41.7626 136.761 41.0371 138.228 39.5859C139.703 38.1261 140.441 36.364 140.441 34.2995C140.441 32.2351 139.703 30.4773 138.228 29.0261C136.761 27.5664 134.985 26.8365 132.899 26.8365C130.813 26.8365 129.032 27.5664 127.557 29.0261C126.09 30.4773 125.357 32.2351 125.357 34.2995C125.357 36.364 126.09 38.1261 127.557 39.5859C129.032 41.0371 130.813 41.7626 132.899 41.7626Z" fill="#3C27D8"/>
<path d="M163 26.8365C160.923 26.8365 159.151 27.562 157.684 29.0132C156.209 30.473 155.472 32.2351 155.472 34.2995C155.472 36.364 156.205 38.1261 157.671 39.5859C159.146 41.0371 160.927 41.7626 163.013 41.7626C164.899 41.7626 166.531 41.1666 167.91 39.9746L170.293 42.3327C168.251 44.1639 165.824 45.0796 163.013 45.0796C160.002 45.0796 157.431 44.0301 155.301 41.9311C153.18 39.8234 152.12 37.2796 152.12 34.2995C152.12 31.3195 153.185 28.7757 155.314 26.668C157.436 24.569 159.997 23.5195 163 23.5195H163.013C166.025 23.5195 168.595 24.569 170.725 26.668C170.865 26.8062 171 26.9487 171.131 27.0956L168.761 29.4408C168.63 29.2939 168.495 29.1514 168.355 29.0132C166.88 27.562 165.099 26.8365 163.013 26.8365H163Z" fill="#3C27D8"/>
<path d="M181.318 45.0796C178.306 45.0796 175.735 44.0301 173.606 41.9311C171.485 39.8234 170.424 37.2796 170.424 34.2995C170.424 31.3195 171.485 28.78 173.606 26.681C175.735 24.5733 178.306 23.5195 181.318 23.5195C184.329 23.5195 186.895 24.5733 189.016 26.681C191.146 28.78 192.211 31.3195 192.211 34.2995C192.211 37.2796 191.146 39.8234 189.016 41.9311C186.895 44.0301 184.329 45.0796 181.318 45.0796ZM181.318 41.7626C183.404 41.7626 185.18 41.0371 186.646 39.5859C188.122 38.1261 188.859 36.364 188.859 34.2995C188.859 32.2351 188.122 30.4773 186.646 29.0261C185.18 27.5664 183.404 26.8365 181.318 26.8365C179.231 26.8365 177.451 27.5664 175.975 29.0261C174.509 30.4773 173.776 32.2351 173.776 34.2995C173.776 36.364 174.509 38.1261 175.975 39.5859C177.451 41.0371 179.231 41.7626 181.318 41.7626Z" fill="#3C27D8"/>
<path d="M194.882 24.3488H203.262C206.037 24.3488 208.407 25.3205 210.371 27.264C212.335 29.2075 213.317 31.5527 213.317 34.2995C213.317 37.0464 212.335 39.3915 210.371 41.3351C208.407 43.2786 206.037 44.2503 203.262 44.2503H194.882V24.3488ZM198.234 27.6657V40.9334H203.262C205.112 40.9334 206.692 40.2856 208.001 38.9899C209.311 37.6942 209.965 36.1308 209.965 34.2995C209.965 32.4683 209.311 30.9049 208.001 29.6092C206.692 28.3135 205.112 27.6657 203.262 27.6657H198.234Z" fill="#3C27D8"/>
<path d="M227.72 24.3488V27.6657H219.34V32.6411H226.044V35.958H219.34V40.9334H227.72V44.2503H215.988V24.3488H227.72Z" fill="#3C27D8"/>
<path d="M196.862 16.5846L195.592 19.6H192.441L200.845 0L209.249 19.6H206.097L204.828 16.5846H196.862ZM203.548 13.5692L200.845 7.16155L198.142 13.5692H203.548Z" fill="#434343"/>
<path d="M213.057 15.0769V19.6H210.256V1.50769H216.559C218.302 1.50769 219.787 2.17124 221.013 3.49832C222.246 4.81755 222.862 6.41555 222.862 8.29232C222.862 10.1691 222.246 11.771 221.013 13.0981C219.787 14.4173 218.302 15.0769 216.559 15.0769H213.057ZM213.057 4.52308V12.0616H216.559C217.529 12.0616 218.354 11.6964 219.032 10.9661C219.718 10.228 220.061 9.33671 220.061 8.29232C220.061 7.24792 219.718 6.36058 219.032 5.63029C218.354 4.89215 217.529 4.52308 216.559 4.52308H213.057Z" fill="#434343"/>
<path d="M227.721 19.6H224.919V1.50769H227.721V19.6Z" fill="#434343"/>
<path d="M45.9017 28.3005C45.9017 34.8294 44.7969 39.681 42.5874 42.8551C40.3779 46.0291 36.9242 47.6162 32.2265 47.6162C27.5884 47.6162 24.1547 46.0693 21.9253 42.9756C19.6958 39.8618 18.5413 35.2212 18.4617 29.0538V21.6108C18.4617 15.1622 19.5664 10.3709 21.776 7.23699C23.9855 4.10309 27.4491 2.53613 32.1668 2.53613C36.8446 2.53613 40.2883 4.05286 42.4978 7.08633C44.7074 10.0997 45.842 14.7604 45.9017 21.0684V28.3005ZM40.3779 20.6766C40.3779 15.9557 39.721 12.5204 38.4072 10.3709C37.0934 8.20127 35.0133 7.11646 32.1668 7.11646C29.3401 7.11646 27.2799 8.19123 25.986 10.3408C24.6922 12.4903 24.0253 15.795 23.9855 20.2548V29.1743C23.9855 33.9154 24.6623 37.4209 26.0159 39.691C27.3894 41.941 29.4596 43.066 32.2265 43.066C34.9536 43.066 36.974 42.0013 38.2878 39.8718C39.6214 37.7424 40.3181 34.3875 40.3779 29.8072V20.6766Z" fill="#434343"/>
<path d="M10.7146 32.1964C10.7146 34.5141 9.7087 37.2374 9.7087 39.3234C9.7087 41.815 11.6613 43.3215 14.8565 43.7271L13.9098 49C7.63776 48.6523 3.61421 44.886 3.61421 39.9608C3.61421 37.4692 4.62009 34.8038 4.62009 32.602C4.62009 30.8057 3.96922 29.531 1.0699 29.4151L0.359863 24.374C3.85089 24.2581 4.62009 22.8095 4.62009 20.7235C4.62009 18.6376 3.85089 16.146 3.85089 13.8283C3.85089 8.38158 8.58448 4.20964 16.0399 3.91992V8.49746C11.7797 9.19278 10.0046 11.1629 10.0046 14.7553C10.0046 16.5516 10.7738 18.7535 10.7738 20.7235C10.7738 22.8675 9.59036 24.8375 6.75021 26.402C9.53119 28.0244 10.7146 30.0524 10.7146 32.1964Z" fill="#3C27D8"/>
<path d="M56.6903 26.402C53.8502 24.8955 52.6668 22.9254 52.6668 20.7235C52.6668 18.7535 53.436 16.5516 53.436 14.7554C53.436 11.1629 51.6609 9.19279 47.4006 8.49747V3.91992C54.7969 4.26758 59.5896 8.43952 59.5896 13.8283C59.5896 16.146 58.8204 18.6376 58.8204 20.7235C58.8204 22.8095 59.5896 24.2581 63.0807 24.374L62.3706 29.4151C59.4713 29.5309 58.8204 30.8057 58.8204 32.602C58.8204 34.8038 59.8263 37.4692 59.8263 39.9608C59.8263 44.886 55.8619 48.6523 49.5307 49L48.584 43.7271C51.7792 43.3215 53.7318 41.815 53.7318 39.3234C53.7318 37.1795 52.7259 34.5141 52.7259 32.1964C52.6668 29.9366 53.8502 27.9085 56.6903 26.402Z" fill="#3C27D8"/>
</svg>
